/* XPM */
static char * boxes_xpm[] = {
"24 24 19 1",
" 	c None",
".	c #8000BF",
"+	c #7F00BF",
"@	c #8000BE",
"#	c #7F00C0",
"$	c #80FF41",
"%	c #80FF40",
"&	c #80CE58",
"*	c #80F048",
"=	c #7F7485",
"-	c #80C35E",
";	c #7F26AD",
">	c #8011B6",
",	c #807386",
"'	c #7FC45D",
")	c #8025AC",
"!	c #8013B6",
"~	c #80FA43",
"{	c #80FF3F",
"                        ",
"                        ",
"  .+++++++++++++++++@   ",
"  ++.+++++++++++++.+#   ",
"  ++   $$$$$%%%%   +#   ",
"  ++  %%%%%%%%%%%  +#   ",
"  ++  %%%%%%%%%%%  +#   ",
"  ++  %%       %%  +#   ",
"  ++  %%       %%  +#   ",
"  ++  %%       %%  +#   ",
"  ++ &%*       %% ++#   ",
"  +++=%-++++++;%%>++#   ",
"   ++,%'++++++)%%!+#    ",
"      %~       %%       ",
"      %%       %%       ",
"      %%       %%       ",
"      %{       %%       ",
"      %%       %%       ",
"      %%       %%       ",
"      %{       %%       ",
"      %%       %%       ",
"      %%%%%%%%%%%       ",
"      %%%%%%%%%%%       ",
"                        "};
