/* XPM */
static char * ellipse_xpm[] = {
"24 20 24 1",
" 	c None",
".	c #00FF00",
"+	c #53597D",
"@	c #643796",
"#	c #6F21A6",
"$	c #7710B3",
"%	c #8000BF",
"&	c #7F00BF",
"*	c #692C9E",
"=	c #575182",
"-	c #525A7C",
";	c #7318AD",
">	c #7F00BE",
",	c #7F00C0",
"'	c #7C05BC",
")	c #46726A",
"!	c #1FC02F",
"~	c #11DC1A",
"{	c #11DD1A",
"]	c #0DE314",
"^	c #47706C",
"/	c #6D23A5",
"(	c #0FE017",
"_	c #369351",
"      .....             ",
"    .........           ",
"   ...........          ",
"  ...      +@#$%%       ",
" ...     %&%*=-;%&>%    ",
" ...   ,&%   ...  %%,   ",
" ..   %>     ...    %%  ",
"...  ,&       ..     && ",
"...  %%       ...     &&",
"...  &        ...     &%",
"...  &        ...     %%",
"...  &        ...     &%",
"...  &        ..      ,%",
" ..  %&      ...      & ",
" ...  %&     ...     %, ",
" ...   >%   ...    %%&  ",
"  ....  ,&')!~{  %&&&   ",
"   .....]^/&&&&&&%&     ",
"    .......(_           ",
"      .....             "};
