/* XPM */
static char * highlight_xpm[] = {
"24 24 81 1",
" 	c None",
".	c #FFFE00",
"+	c #FFFF00",
"@	c #A09B1D",
"#	c #7E7828",
"$	c #D8D70D",
"%	c #70692D",
"&	c #433A3A",
"*	c #BFBD14",
"=	c #B2AE17",
"-	c #504836",
";	c #F0F004",
">	c #5D5532",
",	c #FEFE00",
"'	c #A6A21C",
")	c #655E2F",
"!	c #4C4437",
"~	c #4A4238",
"{	c #7C7628",
"]	c #979220",
"^	c #6D662D",
"/	c #564E34",
"(	c #6A642E",
"_	c #B5B217",
":	c #969120",
"<	c #898425",
"[	c #443B39",
"}	c #B6B216",
"|	c #E0DF0A",
"1	c #574E34",
"2	c #ACA81A",
"3	c #E5E407",
"4	c #E8E707",
"5	c #6E672C",
"6	c #615A31",
"7	c #CAC810",
"8	c #827C26",
"9	c #615931",
"0	c #FCFC01",
"a	c #C8C511",
"b	c #69622E",
"c	c #6C652D",
"d	c #ABA719",
"e	c #DCDB0B",
"f	c #F2F204",
"g	c #F8F803",
"h	c #8A8424",
"i	c #534B35",
"j	c #F9F901",
"k	c #443B3A",
"l	c #D2CF0E",
"m	c #726C2B",
"n	c #BBB715",
"o	c #7F7827",
"p	c #F0EF04",
"q	c #ECEB06",
"r	c #E1E008",
"s	c #6E662C",
"t	c #A9A51B",
"u	c #C3C013",
"v	c #463E39",
"w	c #FBFB01",
"x	c #8E8A23",
"y	c #524936",
"z	c #5A5133",
"A	c #9C991F",
"B	c #7C7528",
"C	c #524935",
"D	c #817B27",
"E	c #463D39",
"F	c #575034",
"G	c #E5E409",
"H	c #9F9B1E",
"I	c #6C642D",
"J	c #C2BF13",
"K	c #C7C411",
"L	c #8F8923",
"M	c #B7B516",
"N	c #7B7428",
"O	c #99941F",
"P	c #ECEC06",
"                        ",
"                        ",
"                        ",
"  .++++++++++++++++++.  ",
" .++++++++++++++++++++. ",
" +++++++++++@###$++++++ ",
" +++++++++++%&&&*++++++ ",
" +++++++++++=-&&*++++++ ",
" +++++;++++++>&&*++++++ ",
" +,')!&~>{;++>&&]^/(_++ ",
" +:&&&&&&&<++>&&&&&&[}+ ",
" +|12345&&^++>&&678&&9+ ",
" ++0,a@b&&c++>&&d+e&&&f ",
" +ghi&&&&&c++>&&*+jk&&l ",
" +m&&(no&&c++>&&*+p&&&$ ",
" qk&kr+s&&c++>&&t+u&&vw ",
" |k&&x#k&&yt+>&&zA-&&B+ ",
" +)&&&&C&&&D+>&&E&&&FG+ ",
" +qHIoJKLLLM+@LLlxNOP++ ",
" .++++++++++++++++++++. ",
"  .++++++++++++++++++.  ",
"                        ",
"                        ",
"                        "};
