/* XPM */
static char * lines_xpm[] = {
"24 24 5 1",
" 	c None",
".	c #FF0000",
"+	c #80FF41",
"@	c #80FF40",
"#	c #80FF3F",
"                        ",
"                        ",
"  .            .        ",
"  ...         ..        ",
" .....        ...       ",
"   .....     ....       ",
"    ......   .....      ",
"      ............      ",
"        ...........     ",
"          ..........    ",
"          ..........    ",
"          ...........   ",
"         ............   ",
"        ..............  ",
"        ..............  ",
"       ................ ",
"                        ",
"                        ",
"                 +@@@@  ",
"            +@#@@@@##   ",
"        @@#@@@@@@@      ",
"    @@@@@@@#@           ",
"  #@@@@#+               ",
"  +@#                   "};
