/* XPM */
static char * pdf_xpm[] = {
"24 24 173 2",
"  	c None",
". 	c #B12323",
"+ 	c #D4312F",
"@ 	c #D6332F",
"# 	c #D5312F",
"$ 	c #FF413D",
"% 	c #FE413C",
"& 	c #D02E2C",
"* 	c #D42E2D",
"= 	c #FE3F3B",
"- 	c #FE3E3B",
"; 	c #D02C2C",
"> 	c #D42D2C",
", 	c #FD3C39",
"' 	c #FD4845",
") 	c #FD5553",
"! 	c #FD3B39",
"~ 	c #CF2B2B",
"{ 	c #D42B2A",
"] 	c #FD3937",
"^ 	c #FD3E3C",
"/ 	c #FFEEEE",
"( 	c #FFDDDC",
"_ 	c #FD5654",
": 	c #CF2828",
"< 	c #D3282A",
"[ 	c #FC3635",
"} 	c #FC3F3F",
"| 	c #FFFFFF",
"1 	c #FD9796",
"2 	c #FD6160",
"3 	c #CE2628",
"4 	c #D22828",
"5 	c #FB3433",
"6 	c #FB3333",
"7 	c #FB3C3C",
"8 	c #FDAAAA",
"9 	c #FB4949",
"0 	c #CE2526",
"a 	c #D22426",
"b 	c #FB3132",
"c 	c #FB3131",
"d 	c #FEE4E4",
"e 	c #FB3434",
"f 	c #FB3031",
"g 	c #CE2325",
"h 	c #D22225",
"i 	c #FA2E30",
"j 	c #FDB7B8",
"k 	c #FFEDED",
"l 	c #FA2E2F",
"m 	c #CE2123",
"n 	c #D22123",
"o 	c #FA2B2E",
"p 	c #FC9091",
"q 	c #FA3739",
"r 	c #F92B2D",
"s 	c #CD2023",
"t 	c #D11F23",
"u 	c #F9292C",
"v 	c #FECECF",
"w 	c #FDA7A9",
"x 	c #F9282C",
"y 	c #CD1E22",
"z 	c #D11D21",
"A 	c #F8262A",
"B 	c #FA5C5F",
"C 	c #FEEEEE",
"D 	c #FB8588",
"E 	c #FFFEFE",
"F 	c #F8252A",
"G 	c #CC1B20",
"H 	c #D11A20",
"I 	c #F82328",
"J 	c #FDC4C6",
"K 	c #FB9193",
"L 	c #FCA4A6",
"M 	c #FEDFE0",
"N 	c #F83135",
"O 	c #CC1A1F",
"P 	c #D0191E",
"Q 	c #F72126",
"R 	c #F72026",
"S 	c #F95458",
"T 	c #FFF5F6",
"U 	c #F83136",
"V 	c #F72329",
"W 	c #FDC8C9",
"X 	c #FEE7E7",
"Y 	c #FB8589",
"Z 	c #FB9194",
"` 	c #FCA3A6",
" .	c #FB8F92",
"..	c #F95B5F",
"+.	c #F7262C",
"@.	c #CA181E",
"#.	c #CF171D",
"$.	c #F61E24",
"%.	c #FDCCCD",
"&.	c #FB989B",
"*.	c #F8595E",
"=.	c #FB979A",
"-.	c #FDD5D6",
";.	c #FEE7E8",
">.	c #FCB6B9",
",.	c #FDCED0",
"'.	c #FB9195",
").	c #FCB3B5",
"!.	c #FA777B",
"~.	c #F61D24",
"{.	c #CA151C",
"].	c #CF151D",
"^.	c #F61B23",
"/.	c #F61B22",
"(.	c #F96A6E",
"_.	c #FED9DB",
":.	c #FBA6A8",
"<.	c #F97074",
"[.	c #F7393F",
"}.	c #F61F25",
"|.	c #F96B6F",
"1.	c #FCB8BB",
"2.	c #FEE1E2",
"3.	c #FEE4E5",
"4.	c #F8494E",
"5.	c #CA151A",
"6.	c #CE131A",
"7.	c #F51821",
"8.	c #F62A32",
"9.	c #FBA8AB",
"0.	c #F97379",
"a.	c #F51820",
"b.	c #C91219",
"c.	c #CE1019",
"d.	c #F5161F",
"e.	c #F74B52",
"f.	c #FEDDDE",
"g.	c #FDDADC",
"h.	c #FCBABD",
"i.	c #F5151F",
"j.	c #F4151E",
"k.	c #C80F17",
"l.	c #CE0F17",
"m.	c #F4131D",
"n.	c #F52932",
"o.	c #FEEFF0",
"p.	c #FCBFC2",
"q.	c #FEEDEE",
"r.	c #F4121D",
"s.	c #C80E17",
"t.	c #CC0D16",
"u.	c #F3101B",
"v.	c #F76168",
"w.	c #FFF7F7",
"x.	c #FDD1D3",
"y.	c #F6444C",
"z.	c #C80C16",
"A.	c #CC0B15",
"B.	c #F30E19",
"C.	c #F30D19",
"D.	c #F5353F",
"E.	c #F30F1B",
"F.	c #C80A15",
"G.	c #CC0A13",
"H.	c #F20B17",
"I.	c #F20A17",
"J.	c #C80913",
"K.	c #CA0712",
"L.	c #F10815",
"M.	c #C70712",
"N.	c #A7060E",
"O.	c #C40611",
"P.	c #C60611",
". + @ @ @ @ @ @ @ @ @ @ @ @ @ @ @ @ @ @ @ @ + . ",
"# $ $ $ $ $ $ $ $ $ $ $ $ $ $ $ $ $ $ % % % % & ",
"* = = - - - - - - - - - - - - - - - - - - - - ; ",
"> , , , , , , , , , ' ) , ! ! ! ! ! ! ! ! ! ! ~ ",
"{ ] ] ] ] ] ] ] ] ^ / ( _ ] ] ] ] ] ] ] ] ] ] : ",
"< [ [ [ [ [ [ [ [ } | 1 2 [ [ [ [ [ [ [ [ [ [ 3 ",
"4 5 5 5 5 5 6 6 6 7 | 8 9 6 6 6 6 6 6 6 6 6 6 0 ",
"a b b b b c c c c c d / e c c c c c f f f f f g ",
"h i i i i i i i i i j k l l l l l l l l l l l m ",
"n o o o o o o o o o p / q o o o o o r r r r r s ",
"t u u u u u u u u u v | w x x x x x x x x x x y ",
"z A A A A A A A A B C D E B A A A A A A A F F G ",
"H I I I I I I I I J K I L M N I I I I I I I I O ",
"P Q Q Q R R R R S T U R V W X Y Z `  ...+.R R @.",
"#.$.$.$.$.$.$.$.%.&.*.=.-.;.>.;.E ,.'.).!.~.~.{.",
"].^.^.^./././.(.| _.:.<.[././.}.|.1.2.3.4././.5.",
"6.7.7.7.7.8.9.E 0.7.7.a.a.a.a.a.a.a.a.a.a.a.a.b.",
"c.d.d.d.e.f.g.h.d.d.i.i.i.i.i.i.i.i.i.j.j.j.j.k.",
"l.m.m.n.o.p.q.n.m.m.m.m.m.m.m.m.m.m.m.m.r.r.r.s.",
"t.u.u.v.w.x.y.u.u.u.u.u.u.u.u.u.u.u.u.u.u.u.u.z.",
"A.B.B.C.D.E.C.C.C.C.C.C.C.C.C.C.C.C.C.C.C.C.C.F.",
"G.H.H.H.H.H.H.H.H.H.H.H.H.I.I.I.I.I.I.I.I.I.I.J.",
"K.L.L.L.L.L.L.L.L.L.L.L.L.L.L.L.L.L.L.L.L.L.L.M.",
"N.O.P.P.P.P.P.P.P.P.P.P.P.P.P.P.P.P.P.P.P.P.O.N."};
