/* XPM */
static char * pencil_light_xpm[] = {
"24 24 18 1",
" 	c None",
".	c #E6E6E6",
"+	c #E7E7E7",
"@	c #E5E5E5",
"#	c #E4E3E5",
"$	c #3428DF",
"%	c #3428E0",
"&	c #B2AFE5",
"*	c #473CE1",
"=	c #B0ADE4",
"-	c #3428DE",
";	c #3528E0",
">	c #3429DF",
",	c #3528DF",
"'	c #3427DF",
")	c #3328E0",
"!	c #3329DF",
"~	c #3327DE",
"                 .      ",
"                ....    ",
"               .+....   ",
"              @......+  ",
"              .......+. ",
"             ...........",
"            ........... ",
"           @+.......... ",
"          ............  ",
"          ...........   ",
"         ...........    ",
"         ..........+    ",
"         ........+@     ",
"         ........@      ",
"         ........       ",
"         #......@       ",
"     $%$$&.....         ",
"   %$$$$$*=             ",
"  $$$%                  ",
" $$$          %$$$-     ",
" $$$$%;>-,>$$$$$$$$     ",
" %$$$$$$$$$$$$'$)       ",
"    !$%$$$~             ",
"                        "};
