/* XPM */
static char * pencil_xpm[] = {
"24 24 17 1",
" 	c None",
".	c #696161",
"+	c #686161",
"@	c #686262",
"#	c #686060",
"$	c #676161",
"%	c #686162",
"&	c #5C52E5",
"*	c #5C52E6",
"=	c #655D87",
"-	c #5C53D7",
";	c #645C89",
">	c #5D52E5",
",	c #5C53E5",
"'	c #5C52E4",
")	c #5B52E5",
"!	c #5B52E4",
"                 .      ",
"                ++++    ",
"               +++++@   ",
"              #+++++++  ",
"              +++++++++ ",
"             ++++++++++$",
"            +++++++++++ ",
"           +++++++++++$ ",
"          ++++++++++++  ",
"          +++++++++++   ",
"         +#+++++++++    ",
"         +++++++++#+    ",
"         ++++++++++     ",
"         +++++++++      ",
"         ++++++++       ",
"         %+++++++       ",
"     &*&&=%+++.         ",
"   *&&&&&-;             ",
"  &&&>                  ",
" &&*          *&&&,     ",
" &&&&,'&''&&&&&&&&&     ",
" *&&&&&&&&&&&&&&>       ",
"    )&*&,&!             ",
"                        "};
