/* XPM */
static char * quotation_light_xpm[] = {
"24 24 9 1",
" 	c None",
".	c #BCC5C5",
"+	c #BCC6C6",
"@	c #BBC5C5",
"#	c #BDC5C5",
"$	c #BDC4C4",
"%	c #BBC4C4",
"&	c #BDC6C6",
"*	c #BBC6C6",
"                        ",
"                        ",
"                        ",
"                        ",
"                        ",
"                        ",
"        .+     @.       ",
"       ...    +...      ",
"      #....   .....     ",
"      .....  .....+     ",
"      .....   .....     ",
"       ....   $....     ",
"        ...    ...      ",
"        ..     %.+      ",
"       +..     ...      ",
"       ..@     ..       ",
"      ...     ..&       ",
"     *..     ...        ",
"             #          ",
"                        ",
"                        ",
"                        ",
"                        ",
"                        "};
