/* XPM */
static char * quotation_xpm[] = {
"24 24 7 1",
" 	c None",
".	c #615959",
"+	c #615858",
"@	c #605959",
"#	c #605A5A",
"$	c #615A5A",
"%	c #605858",
"                        ",
"                        ",
"                        ",
"                        ",
"                        ",
"                        ",
"        .+     ..       ",
"       ...    +...      ",
"      @....   .....     ",
"      .....  .....+     ",
"      .....   .....     ",
"       ....   #....     ",
"        ...    ...      ",
"        ..     $.+      ",
"       +..     ...      ",
"       ...     ..       ",
"      ...     ..%       ",
"     +..     ...        ",
"             @          ",
"                        ",
"                        ",
"                        ",
"                        ",
"                        "};
