/* XPM */
static char * star_highlight_light_xpm[] = {
"24 24 58 1",
" 	c None",
".	c #E6E6E6",
"+	c #E5E5E5",
"@	c #E8E8D0",
"#	c #EBEBBC",
"$	c #F1F182",
"%	c #F3F36F",
"&	c #FAFA31",
"*	c #FBFB24",
"=	c #E7E7E7",
"-	c #EAEAC6",
";	c #FFFF00",
">	c #EAEAC0",
",	c #F3F36E",
"'	c #F3F371",
")	c #E9E9CA",
"!	c #F3F373",
"~	c #F3F370",
"{	c #F3F36D",
"]	c #F6F650",
"^	c #FFFF02",
"/	c #F5F560",
"(	c #F1F180",
"_	c #F0F085",
":	c #F0F08B",
"<	c #EFEF91",
"[	c #E9E9CE",
"}	c #E7E7E6",
"|	c #EEEE9E",
"1	c #FEFE0E",
"2	c #FEFE07",
"3	c #F0F086",
"4	c #E9E9C6",
"5	c #FAFA2C",
"6	c #FBFB23",
"7	c #E7E7DF",
"8	c #F8F842",
"9	c #F7F745",
"0	c #E7E7DC",
"a	c #EEEE98",
"b	c #ECECB2",
"c	c #EFEF97",
"d	c #FBFB26",
"e	c #FEFE05",
"f	c #F6F654",
"g	c #F8F845",
"h	c #EAEAC2",
"i	c #FBFB29",
"j	c #FDFD12",
"k	c #E6E6E4",
"l	c #F2F27A",
"m	c #F4F468",
"n	c #E6E6E0",
"o	c #E9E9C8",
"p	c #FAFA32",
"q	c #EBEBB3",
"r	c #E6E6E1",
"s	c #EAEAC4",
"                        ",
"           ..           ",
"           ..           ",
"          +...          ",
"          ....          ",
"          .@#.          ",
"         +.$%..         ",
"         ..&*..         ",
" .....==..-;;>..+       ",
"..........,;;'.........+",
" ...)!~%{];;;^/(_:<[..} ",
"  ...|1;;;;;;;;;;23...  ",
"    ..45;;;;;;;;6#...   ",
"     ..78;;;;;;90..     ",
"      ..a;;;;;;b..      ",
"      ..~;;;;;;c..      ",
"      ..d;efg;;f..      ",
"      .h;i#..a1jk.      ",
"     =.lmn..}.opq.      ",
"     ..[...  ..rs..     ",
"     ....     =....     ",
"    +...        ...     ",
"    =.+          ..     ",
"                        "};
