/* XPM */
static char * subscript_xpm[] = {
"24 24 6 1",
" 	c None",
".	c #676161",
"+	c #686161",
"@	c #696161",
"#	c #686060",
"$	c #696262",
"                        ",
"                        ",
"                        ",
"                        ",
" .++++++++++++          ",
"@++++++++++++++         ",
"+++++++++++++++         ",
"+++++++++++++++         ",
"++++        +++         ",
"++++        +++         ",
"++++        +++         ",
"++++        +++         ",
"++++        +++   +.#   ",
"++++        +++  +++++@ ",
"++++        +++ +.  +++ ",
"++++        +++ +    ++@",
"+++++++++++++++     +++ ",
"+++++++++++++++     +++ ",
"$++++++++++++++    +++  ",
" +++++++++++++    +++   ",
"                 +++    ",
"                +++     ",
"                +++++++ ",
"                ....... "};
