/* XPM */
static char * superscript_xpm[] = {
"24 24 6 1",
" 	c None",
".	c #686262",
"+	c #676161",
"@	c #686161",
"#	c #696161",
"$	c #696262",
"                        ",
"                  ..+   ",
"                @@@@@@  ",
"                @@  @@+ ",
"   ##########   .   @@@ ",
" @@@@@@@@@@@@@+     @@@ ",
" @@@@@@@@@@@@@@    @@@  ",
" @@@@@@@@@@@@@@   @@@   ",
" @@@       +@@@  #@@$   ",
" @@@        @@@  @@+    ",
" @@@        @@@ @@@     ",
" @@@        @@@#@@@@@@@ ",
" @@@        @@@         ",
" @@@        @@@         ",
" @@@        @@@         ",
" @@@       +@@@         ",
" @@@@@@@@@@@@@@         ",
" @@@@@@@@@@@@@@         ",
" @@@@@@@@@@@@@@         ",
"                        ",
"                        ",
"                        ",
"                        ",
"                        "};
