/* XPM */
static char * text_select_xpm[] = {
"24 24 7 1",
" 	c None",
".	c #686161",
"+	c #696262",
"@	c #696060",
"#	c #686262",
"$	c #676161",
"%	c #696161",
"             .........  ",
"             .........  ",
"             .........  ",
"             .........  ",
"              +.....@   ",
" .############+.....$#. ",
".......................#",
"..............#.....$...",
"..             .....  ..",
"..             .....  ..",
"..             .....  ..",
"..             .....  ..",
"..             .....  ..",
"..             .....  ..",
"..             .....  ..",
"..             .....  ..",
"....................$...",
"#......................%",
" .............+.....$.. ",
"               .....    ",
"             .........  ",
"             .........  ",
"             .........  ",
"             .........  "};
