/* XPM */
static char * text_select_light_xpm[] = {
"24 24 3 1",
" 	c None",
".	c #E6E6E6",
"+	c #E5E5E5",
"             .........  ",
"             .........  ",
"             .........  ",
"             .........  ",
"              .......   ",
" .............+........ ",
"........................",
"..............+.........",
"..             .....  ..",
"..             .....  ..",
"..             .....  ..",
"..             .....  ..",
"..             .....  ..",
"..             .....  ..",
"..             .....  ..",
"..             .....  ..",
"..............+.........",
"........................",
" .............+........ ",
"               .....+   ",
"             .........  ",
"             .........  ",
"             .........  ",
"             .........  "};
