/* XPM */
static char * blue_main_menu_xpm[] = {
"25 24 141 2",
"  	c None",
". 	c #419DDB",
"+ 	c #429DDB",
"@ 	c #439DDB",
"# 	c #4DA3DD",
"$ 	c #4EA3DC",
"% 	c #429EDB",
"& 	c #48A1DC",
"* 	c #439FDC",
"= 	c #72C0EA",
"- 	c #6FBFEB",
"; 	c #70C0EB",
"> 	c #70C0EC",
", 	c #49A1DD",
"' 	c #4EA4DD",
") 	c #70C1EC",
"! 	c #6FC0EB",
"~ 	c #70BFEB",
"{ 	c #72BFEA",
"] 	c #3C9BD9",
"^ 	c #48A3DE",
"/ 	c #71C1ED",
"( 	c #71C0EB",
"_ 	c #6EBCE9",
": 	c #3698D9",
"< 	c #429FDC",
"[ 	c #73C3ED",
"} 	c #6FC3EE",
"| 	c #6EC2EE",
"1 	c #49A2DD",
"2 	c #70C4EE",
"3 	c #75C4ED",
"4 	c #3C9ADA",
"5 	c #4CA4DE",
"6 	c #70C4EF",
"7 	c #70C3EE",
"8 	c #3697D9",
"9 	c #75C3ED",
"0 	c #71C1EC",
"a 	c #3696D9",
"b 	c #72C3ED",
"c 	c #6DC2ED",
"d 	c #4AA1DD",
"e 	c #74C3ED",
"f 	c #3C9BDA",
"g 	c #6FC2EE",
"h 	c #71BFEB",
"i 	c #3797D8",
"j 	c #449FDC",
"k 	c #379ADB",
"l 	c #369ADC",
"m 	c #369ADB",
"n 	c #46A0DD",
"o 	c #46A1DD",
"p 	c #379BDC",
"q 	c #47A0DC",
"r 	c #3E9DDB",
"s 	c #399BDB",
"t 	c #46A0DB",
"u 	c #47A1DC",
"v 	c #47A1DD",
"w 	c #46A0DC",
"x 	c #53A5DE",
"y 	c #4AA2DE",
"z 	c #4AA2DD",
"A 	c #3B99DA",
"B 	c #72C2ED",
"C 	c #4EA6DF",
"D 	c #71BFEC",
"E 	c #3D9DDC",
"F 	c #48A2DD",
"G 	c #72C1EC",
"H 	c #4AA2DC",
"I 	c #6DBDEA",
"J 	c #4EA7DF",
"K 	c #449FDD",
"L 	c #6DC1ED",
"M 	c #3E9DDC",
"N 	c #70C2EE",
"O 	c #6CC1ED",
"P 	c #4AA0DC",
"Q 	c #6EC3EE",
"R 	c #449EDC",
"S 	c #4BA2DC",
"T 	c #6CBCEA",
"U 	c #6EC2ED",
"V 	c #6DBEEB",
"W 	c #6BC0ED",
"X 	c #3F9DDC",
"Y 	c #48A3DD",
"Z 	c #6FC1ED",
"` 	c #6BBFEC",
" .	c #4AA1DC",
"..	c #4CA2DC",
"+.	c #459FDB",
"@.	c #4DA4DD",
"#.	c #449FDB",
"$.	c #3398DA",
"%.	c #3399DA",
"&.	c #3A9BDA",
"*.	c #47A0DE",
"=.	c #3397D9",
"-.	c #3398D9",
";.	c #3297D9",
">.	c #3499DA",
",.	c #459FDC",
"'.	c #3B9ADA",
").	c #68BDEB",
"!.	c #71C5EF",
"~.	c #44A3DF",
"{.	c #3E9DDD",
"].	c #73C4EE",
"^.	c #3D99DA",
"/.	c #68BBE9",
"(.	c #44A2DE",
"_.	c #6EC0EB",
":.	c #69BBE9",
"<.	c #44A3DE",
"[.	c #71C3EE",
"}.	c #4BA1DC",
"|.	c #6CBAE8",
"1.	c #76C4ED",
"2.	c #76C3ED",
"3.	c #75C3EC",
"4.	c #46A3DE",
"5.	c #73BEEA",
"6.	c #77C4ED",
"7.	c #73C2EC",
"8.	c #49A2DE",
"9.	c #76C2EC",
"0.	c #73C1EC",
"a.	c #49A0DC",
"b.	c #3A9ADA",
"c.	c #3B99D9",
"d.	c #3A99D9",
"e.	c #3E9BDA",
"f.	c #399AD9",
"g.	c #48A0DC",
"h.	c #4EA3DD",
"i.	c #3999DA",
"j.	c #4AA4DE",
"                                                  ",
"    . + @ @ #     $ + + . %       & . + + %       ",
"  * = - ; > ,     ' ) ! ~ { ]     ^ / ! ( _ :     ",
"  < [ } } | 1     ' 2 } } 3 4     5 6 } 7 ( 8     ",
"  * [ } } | ,     ' 2 } } 9 4     5 6 } 7 0 a     ",
"  * b | | c d     ' } | | e f     5 } | g h i     ",
"  j k l m m n     o m l m p q     r l m m s t     ",
"                                                  ",
"                                                  ",
"    u v o o w     x u o v v j     y u v o v z     ",
"  A _ [ [ B C     * D [ [ / E     F G [ [ > H     ",
"  4 I } } | J     K ! } } L M     F N } } O P     ",
"  4 I } } Q J     R ! } } L E     F N } } L S     ",
"  f T U U L C     K V U U W X     Y Z U U `  .    ",
"    d ......+.    @.z ......#.    , S ......w     ",
"                                                  ",
"                                                  ",
"    $.$.$.%.&.    *.=.$.-.%..     v ;.-.-.>.,.    ",
"  '.).!.!.2 ~.    j 0 !.!.} {.    F ].!.!.U S     ",
"  ^./.} } | (.    j _.} } L E     Y N } } O H     ",
"  4 :.7 7 } <.    j > 7 7 U E     F [.7 2 L }.    ",
"  f |.1.2.3.4.    K 5.1.6.7.X     8.9.2.1.0.a.    ",
"    '.b.c.d.e.      b.d.f.d.g.    h.i.d.d.c.j.    ",
"                                                  "};
