/* XPM */
static char * camera_xpm[] = {
"24 24 57 1",
" 	c None",
".	c #686161",
"+	c #676161",
"@	c #6A6363",
"#	c #7C7676",
"$	c #7C7777",
"%	c #736C6C",
"&	c #6A6262",
"*	c #D5D4D4",
"=	c #EBEBEB",
"-	c #E9E9E9",
";	c #847E7E",
">	c #827C7C",
",	c #B7B4B4",
"'	c #C8C6C6",
")	c #CECCCC",
"!	c #B0ADAD",
"~	c #868181",
"{	c #756E6E",
"]	c #A5A2A2",
"^	c #676262",
"/	c #6B6464",
"(	c #BBB8B8",
"_	c #EAEAEA",
":	c #B4B0B0",
"<	c #6D6666",
"[	c #DBDADA",
"}	c #8F8989",
"|	c #B4B1B1",
"1	c #D4D3D3",
"2	c #ADAAAA",
"3	c #ABA7A7",
"4	c #D2D0D0",
"5	c #BCB9B9",
"6	c #716A6A",
"7	c #857E7E",
"8	c #857F7F",
"9	c #777171",
"0	c #878181",
"a	c #AFABAB",
"b	c #696262",
"c	c #837D7D",
"d	c #D2D1D1",
"e	c #D0D0D0",
"f	c #B8B5B5",
"g	c #D0CFCF",
"h	c #ABA8A8",
"i	c #ADA9A9",
"j	c #CBC8C8",
"k	c #CAC8C8",
"l	c #AEABAB",
"m	c #888383",
"n	c #8A8585",
"o	c #D3D1D1",
"p	c #CCCACA",
"q	c #696060",
"r	c #686262",
"                        ",
"                        ",
"                        ",
"                        ",
"  .++++++++++++++@#$$%  ",
" ...............&*===-; ",
".........>,')!~.{=====]^",
"......./(_=====:<[===-}.",
".......|==1234==567889..",
"......0==ab..ba==c......",
"......!=db....be=f......",
"......g=h......i=j......",
"......k=3......3=g......",
"......f=eb....be=!......",
"......c==lb..bl==m......",
".......5==433e==,.......",
"......./,======5/.......",
".........n|op(;........q",
" ...................... ",
"  +qqqqqqqqqqqqqqqqqqr  ",
"                        ",
"                        ",
"                        ",
"                        "};
