/* XPM */
static char * camera_light_xpm[] = {
"24 24 53 1",
" 	c None",
".	c #E6E6E6",
"+	c #E2E2E2",
"@	c #C7C6C6",
"#	c #C7C5C5",
"$	c #D5D3D3",
"%	c #E4E4E4",
"&	c #5C5555",
"*	c #433A3A",
"=	c #443C3C",
"-	c #C1BEBE",
";	c #E5E5E5",
">	c #847F7F",
",	c #6D6666",
"'	c #645C5C",
")	c #8B8686",
"!	c #BFBDBD",
"~	c #D6D5D5",
"{	c #9A9595",
"]	c #817C7C",
"^	c #443B3B",
"/	c #E0E0E0",
"(	c #5B5353",
"_	c #473E3E",
":	c #B9B6B6",
"<	c #898484",
"[	c #625A5A",
"}	c #928E8E",
"|	c #928D8D",
"1	c #7E7878",
"2	c #DEDEDE",
"3	c #C8C7C7",
"4	c #C8C6C6",
"5	c #8F8A8A",
"6	c #C2C1C1",
"7	c #8C8787",
"8	c #625B5B",
"9	c #676060",
"0	c #938E8E",
"a	c #6B6464",
"b	c #6F6868",
"c	c #5E5757",
"d	c #888383",
"e	c #C6C4C4",
"f	c #8E8A8A",
"g	c #BBB9B9",
"h	c #807A7A",
"i	c #878282",
"j	c #E7E7E7",
"k	c #C1BFBF",
"l	c #6E6868",
"m	c #837E7E",
"n	c #C5C3C3",
"                        ",
"                        ",
"                        ",
"                        ",
"  ...............+@##$  ",
" ...............%&***=- ",
";........#>,')!.~*****{.",
".......%]^*****>/(***_:.",
".......<**[}|[**12344~..",
"......-**);..;5**6......",
"......7*8;....;'*]......",
"......9*0......0*a......",
"......b*5......}*8......",
"......>*c;....;'*d......",
"......e^*f;..;5**g......",
".......h**[|0'**i.......",
".......%7******1+.......",
"j........k79lmn.........",
" ...................... ",
"  ...................;  ",
"                        ",
"                        ",
"                        ",
"                        "};
