/* XPM */
static char * clear_format_xpm[] = {
"24 24 8 1",
" 	c None",
".	c #686161",
"+	c #686262",
"@	c #696262",
"#	c #676060",
"$	c #696161",
"%	c #676161",
"&	c #686060",
"                        ",
"                     .. ",
"                    ...+",
"                  @....#",
"     +..........$.....+ ",
"     ................#  ",
"     ...............%   ",
"     .........%.....    ",
"     ...     ......%    ",
"     ...    ....$..%    ",
"     ...   ........%    ",
"     ...  +.... ...%    ",
"     ... .....  ...%    ",
"     .......$   ...%    ",
"     .......    ...%    ",
"     .$....     ...%    ",
"    $..............%    ",
"   &...............+    ",
"  %................     ",
" #....+%.........@      ",
"$.....                  ",
"+...@                   ",
" ..                     ",
"                        "};
