/* XPM */
static char * find_and_replace_xpm[] = {
"26 24 487 2",
"  	c None",
". 	c #FCA228",
"+ 	c #FDA92D",
"@ 	c #FDAA30",
"# 	c #FDAC34",
"$ 	c #FDAE37",
"% 	c #FDB03A",
"& 	c #FDB23E",
"* 	c #FDB441",
"= 	c #FDB545",
"- 	c #FDB849",
"; 	c #FDBA4C",
"> 	c #FDBB50",
", 	c #FDBD53",
"' 	c #FDBF56",
") 	c #FDC05A",
"! 	c #FDC25D",
"~ 	c #FDC361",
"{ 	c #FDC565",
"] 	c #FDC868",
"^ 	c #FDCA6B",
"/ 	c #FDCC6F",
"( 	c #FDCD72",
"_ 	c #FECF76",
": 	c #FED079",
"< 	c #FFD47D",
"[ 	c #F2C678",
"} 	c #FD9829",
"| 	c #FE992B",
"1 	c #FB982D",
"2 	c #FB9931",
"3 	c #FB9B34",
"4 	c #FB9D37",
"5 	c #FC9F3A",
"6 	c #FCA03C",
"7 	c #FCA23F",
"8 	c #FBA442",
"9 	c #FCA546",
"0 	c #FCA649",
"a 	c #FDA84C",
"b 	c #FDA94F",
"c 	c #FDAB52",
"d 	c #FCAD55",
"e 	c #FDAE58",
"f 	c #FDAF5B",
"g 	c #FDB25E",
"h 	c #FDB361",
"i 	c #FDB564",
"j 	c #FDB767",
"k 	c #FDB86A",
"l 	c #FDBA6E",
"m 	c #FFC074",
"n 	c #C38F57",
"o 	c #FD9A2B",
"p 	c #FA942C",
"q 	c #F58F2D",
"r 	c #F69130",
"s 	c #F69333",
"t 	c #F69435",
"u 	c #F69639",
"v 	c #F7983C",
"w 	c #F4973E",
"x 	c #DF8D40",
"y 	c #A36F41",
"z 	c #89603E",
"A 	c #906743",
"B 	c #A37446",
"C 	c #E4974C",
"D 	c #F7A352",
"E 	c #F8A555",
"F 	c #F8A758",
"G 	c #F8A85B",
"H 	c #F8AA5E",
"I 	c #F8AB61",
"J 	c #F8AD64",
"K 	c #F8AE66",
"L 	c #F8B06A",
"M 	c #FDB56F",
"N 	c #BD8855",
"O 	c #FD9C2F",
"P 	c #FA962F",
"Q 	c #F69433",
"R 	c #F69535",
"S 	c #F69739",
"T 	c #F4973C",
"U 	c #C17E3D",
"V 	c #404041",
"W 	c #062747",
"X 	c #042649",
"Y 	c #022349",
"Z 	c #032547",
"` 	c #052644",
" .	c #07253F",
"..	c #112940",
"+.	c #C98E55",
"@.	c #F8A85C",
"#.	c #F8AC61",
"$.	c #F8AE64",
"%.	c #F8AF67",
"&.	c #F8B26D",
"*.	c #FDB772",
"=.	c #BE8B57",
"-.	c #FD9E31",
";.	c #FB9832",
">.	c #F69332",
",.	c #F0943B",
"'.	c #795C3E",
").	c #032849",
"!.	c #062A4C",
"~.	c #082748",
"{.	c #0F2741",
"].	c #172C3E",
"^.	c #1E3143",
"/.	c #182E45",
"(.	c #082849",
"_.	c #022649",
":.	c #0D2641",
"<.	c #F7AA60",
"[.	c #F8AF66",
"}.	c #F8B26C",
"|.	c #F9B36F",
"1.	c #FEB874",
"2.	c #BE8B59",
"3.	c #FD9F34",
"4.	c #FB9935",
"5.	c #F69738",
"6.	c #F2963A",
"7.	c #7E5D3F",
"8.	c #012545",
"9.	c #022749",
"0.	c #182B40",
"a.	c #6C5543",
"b.	c #D5914E",
"c.	c #F0A051",
"d.	c #EEA053",
"e.	c #CF8F52",
"f.	c #7B634E",
"g.	c #2C3949",
"h.	c #0C2642",
"i.	c #F8B069",
"j.	c #F9B572",
"k.	c #FEBA78",
"l.	c #BE8C5B",
"m.	c #FDA137",
"n.	c #FB9A38",
"o.	c #F69538",
"p.	c #F7983B",
"q.	c #A8723E",
"r.	c #02274B",
"s.	c #082344",
"t.	c #3A3C42",
"u.	c #EA9A4C",
"v.	c #F7A14D",
"w.	c #F7A24F",
"x.	c #F7A452",
"y.	c #F8A85A",
"z.	c #EEA45D",
"A.	c #AE7C4F",
"B.	c #F8AD63",
"C.	c #F8B36F",
"D.	c #F9B472",
"E.	c #F9B675",
"F.	c #FEBB7B",
"G.	c #BE8D5D",
"H.	c #FDA23A",
"I.	c #FB9C3A",
"J.	c #F6973A",
"K.	c #E18E3E",
"L.	c #3C3F43",
"M.	c #092744",
"N.	c #232D3E",
"O.	c #F59D4A",
"P.	c #F7A04C",
"Q.	c #F7A555",
"R.	c #F8A757",
"S.	c #EFAB6A",
"T.	c #F2AF6D",
"U.	c #F9B877",
"V.	c #FEBD7D",
"W.	c #BE8F5F",
"X.	c #FDA43D",
"Y.	c #FB9E3D",
"Z.	c #F7993E",
"`.	c #BD7E41",
" +	c #042546",
".+	c #102641",
"++	c #F7A14C",
"@+	c #F7A757",
"#+	c #F8AA5D",
"$+	c #F8AB60",
"%+	c #F8AC63",
"&+	c #DDA166",
"*+	c #4B4A4A",
"=+	c #24364D",
"-+	c #F1B173",
";+	c #F9B97A",
">+	c #FEBE80",
",+	c #BE9062",
"'+	c #FDA540",
")+	c #FBA040",
"!+	c #F2973F",
"~+	c #836445",
"{+	c #07294A",
"]+	c #F7A24E",
"^+	c #F8A554",
"/+	c #F8A95D",
"(+	c #F8AF68",
"_+	c #DFA266",
":+	c #474B50",
"<+	c #01244D",
"[+	c #102747",
"}+	c #444655",
"|+	c #F0B379",
"1+	c #F9BA7D",
"2+	c #FEBF83",
"3+	c #BE9064",
"4+	c #FDA743",
"5+	c #FBA143",
"6+	c #F39943",
"7+	c #615349",
"8+	c #0E2745",
"9+	c #F6A24F",
"0+	c #F7A351",
"a+	c #F8A657",
"b+	c #F8A95E",
"c+	c #DA9F65",
"d+	c #3E454C",
"e+	c #022848",
"f+	c #002448",
"g+	c #0E284A",
"h+	c #394258",
"i+	c #EDB47E",
"j+	c #FEC186",
"k+	c #BF9266",
"l+	c #F3A348",
"m+	c #C08851",
"n+	c #8F6844",
"o+	c #303B47",
"p+	c #112E4C",
"q+	c #62656A",
"r+	c #BB8B5D",
"s+	c #D99858",
"t+	c #F6A557",
"u+	c #F9B26B",
"v+	c #A97F5B",
"w+	c #514C4C",
"x+	c #4E5052",
"y+	c #052242",
"z+	c #353A4A",
"A+	c #665752",
"B+	c #BF9673",
"C+	c #FEC288",
"D+	c #C09368",
"E+	c #DF9846",
"F+	c #343D45",
"G+	c #012544",
"H+	c #002244",
"I+	c #031C39",
"J+	c #F8AB5F",
"K+	c #F8B16B",
"L+	c #F8B26E",
"M+	c #F9B471",
"N+	c #F5B473",
"O+	c #D09F6F",
"P+	c #1A2D40",
"Q+	c #F9BD82",
"R+	c #F9BF85",
"S+	c #FFC58B",
"T+	c #BF946A",
"U+	c #FDAC4C",
"V+	c #DE974D",
"W+	c #404449",
"X+	c #012646",
"Y+	c #062443",
"Z+	c #F8AC62",
"`+	c #F8AE65",
" @	c #F9B16B",
".@	c #F9B26E",
"+@	c #F9B371",
"@@	c #F9B674",
"#@	c #F8B777",
"$@	c #B5906A",
"%@	c #072846",
"&@	c #384551",
"*@	c #F3BA81",
"=@	c #F9C088",
"-@	c #FEC68E",
";@	c #BF956C",
">@	c #FDAD4F",
",@	c #FBA74E",
"'@	c #D4904D",
")@	c #3B404A",
"!@	c #0E2644",
"~@	c #F7A85C",
"{@	c #F8A95C",
"]@	c #F8AD62",
"^@	c #F9B470",
"/@	c #F9B574",
"(@	c #F9B776",
"_@	c #F7B778",
":@	c #4D5254",
"<@	c #072745",
"[@	c #FAC088",
"}@	c #FAC28B",
"|@	c #FEC791",
"1@	c #BF966E",
"2@	c #FDAE52",
"3@	c #FBA851",
"4@	c #F7A250",
"5@	c #D49152",
"6@	c #A37652",
"7@	c #F5A85D",
"8@	c #F9B26D",
"9@	c #F9B370",
"0@	c #F9B879",
"a@	c #B9936C",
"b@	c #032746",
"c@	c #0F2B46",
"d@	c #FAC087",
"e@	c #FAC18A",
"f@	c #FAC38D",
"g@	c #FFC893",
"h@	c #BF9770",
"i@	c #FDB054",
"j@	c #FBA954",
"k@	c #F7A453",
"l@	c #F7A656",
"m@	c #EEA65F",
"n@	c #F7AD66",
"o@	c #C1976D",
"p@	c #20374C",
"q@	c #022645",
"r@	c #11273D",
"s@	c #FAC490",
"t@	c #FFCA97",
"u@	c #BF9972",
"v@	c #FDB157",
"w@	c #FBAB57",
"x@	c #F8A859",
"y@	c #F8AA5F",
"z@	c #DD9C5D",
"A@	c #5C554E",
"B@	c #474A4D",
"C@	c #BD8D60",
"D@	c #F2AE6B",
"E@	c #F9B573",
"F@	c #DEA871",
"G@	c #7F6F5F",
"H@	c #22384D",
"I@	c #002649",
"J@	c #022546",
"K@	c #08243F",
"L@	c #3A414B",
"M@	c #EBB888",
"N@	c #FAC693",
"O@	c #FFCC99",
"P@	c #BF9974",
"Q@	c #FDB35B",
"R@	c #FCAD5A",
"S@	c #876C52",
"T@	c #022447",
"U@	c #052646",
"V@	c #142E47",
"W@	c #38404D",
"X@	c #545155",
"Y@	c #555455",
"Z@	c #484E55",
"`@	c #293C4E",
" #	c #062948",
".#	c #002547",
"+#	c #002648",
"@#	c #002747",
"##	c #032644",
"$#	c #0B2643",
"%#	c #333C4C",
"&#	c #EEBD8E",
"*#	c #FAC796",
"=#	c #FFCC9C",
"-#	c #BF9A77",
";#	c #FDB55E",
">#	c #FCAE5C",
",#	c #F8AD65",
"'#	c #EDA965",
")#	c #90745A",
"!#	c #102A43",
"~#	c #022342",
"{#	c #022547",
"]#	c #012446",
"^#	c #032544",
"/#	c #082744",
"(#	c #0B2844",
"_#	c #38444F",
":#	c #173148",
"<#	c #012745",
"[#	c #012746",
"}#	c #082544",
"|#	c #F9C897",
"1#	c #FFCE9F",
"2#	c #BF9B79",
"3#	c #FDB661",
"4#	c #FCB05F",
"5#	c #F8B16A",
"6#	c #F7B06C",
"7#	c #E8A96D",
"8#	c #B88E66",
"9#	c #74685D",
"0#	c #434A4F",
"a#	c #464C54",
"b#	c #6B635C",
"c#	c #BB9671",
"d#	c #EDB781",
"e#	c #F1BB84",
"f#	c #CAA27B",
"g#	c #0E2C46",
"h#	c #00254B",
"i#	c #082645",
"j#	c #F8C89B",
"k#	c #FFD0A1",
"l#	c #BF9D7B",
"m#	c #FDB864",
"n#	c #FBB162",
"o#	c #F8B370",
"p#	c #F7B678",
"q#	c #F6B87A",
"r#	c #F7B97D",
"s#	c #F8BC80",
"t#	c #F9BE84",
"u#	c #F9C087",
"v#	c #FAC28D",
"w#	c #C7A27E",
"x#	c #0D2A47",
"y#	c #112B45",
"z#	c #FACC9E",
"A#	c #FFD1A4",
"B#	c #C09E7D",
"C#	c #FEB967",
"D#	c #FDB466",
"E#	c #F9AD64",
"F#	c #F9AF68",
"G#	c #F9B16A",
"H#	c #FAB26D",
"I#	c #FAB470",
"J#	c #FAB673",
"K#	c #FAB776",
"L#	c #FAB879",
"M#	c #FABA7C",
"N#	c #FABC7E",
"O#	c #FABE82",
"P#	c #FABF85",
"Q#	c #FBC187",
"R#	c #FBC28A",
"S#	c #FBC48E",
"T#	c #FBC590",
"U#	c #FBC693",
"V#	c #E5B98D",
"W#	c #A28D77",
"X#	c #D4B18E",
"Y#	c #FBCC9E",
"Z#	c #FCCEA2",
"`#	c #FFD4A8",
" $	c #C09F7F",
".$	c #FFBC6A",
"+$	c #F0AA62",
"@$	c #E7A35F",
"#$	c #E7A462",
"$$	c #E7A565",
"%$	c #E8A768",
"&$	c #E8A96A",
"*$	c #E8AA6D",
"=$	c #E8AC70",
"-$	c #E8AD73",
";$	c #E8AE76",
">$	c #E8B078",
",$	c #E8B17B",
"'$	c #E8B27E",
")$	c #E8B480",
"!$	c #E8B683",
"~$	c #E8B785",
"{$	c #E8B888",
"]$	c #E9B98C",
"^$	c #E9BB8E",
"/$	c #E9BC90",
"($	c #E9BD93",
"_$	c #E9BF96",
":$	c #E9C199",
"<$	c #EEC69E",
"[$	c #B99A7D",
". + @ # $ % & * = - ; > , ' ) ! ~ { ] ^ / ( _ : < [ ",
"} | 1 2 3 4 5 6 7 8 9 0 a b c d e f g h i j k l m n ",
"o p q r s t u v w x y z A B C D E F G H I J K L M N ",
"O P r Q R S T U V W X Y Z `  ...+.@.H #.$.%.L &.*.=.",
"-.;.>.R S ,.'.).!.~.{.].^./.(._.:.  <.J [.L }.|.1.2.",
"3.4.t 5.6.7.8.9.0.a.b.c.d.e.f.g.h.  J [.i.}.|.j.k.l.",
"m.n.o.p.q.r.s.t.u.v.w.x.E F y.z.A.B.K L }.C.D.E.F.G.",
"H.I.J.K.L.M.N.O.P.w.x.Q.R.G H I B.K L S.T.j.E.U.V.W.",
"X.Y.Z.`. +.+  ++w.x.Q.@+G #+$+%+[.i.&+*+=+-+U.;+>+,+",
"'+)+!+~+{+  ++]+x.^+R.y./+$+B.K (+_+:+<+[+}+|+1+2+3+",
"4+5+6+7+8+  9+0+Q.a+y.b+$+%+K i.c+d+8.e+f+g+h+i+j+k+",
"l+m+n+o+p+q+r+s+t+y./+$+B.K (+u+v+w+x+8.y+z+A+B+C+D+",
"E+F+8.8.G+H+I+  @./+J+%+K (+K+L+M+N+O+` P+  Q+R+S+T+",
"U+V+W+X+8.Y+  y./+$+Z+`+(+ @.@+@@@#@$@%@&@*@R+=@-@;@",
">@,@'@)@!@  ~@{@J+]@`+(+K+.@^@/@(@_@:@<@  R+[@}@|@1@",
"2@3@4@5@6@7@/+J+%+`+(+K+8@9@/@(@0@a@b@c@  d@e@f@g@h@",
"i@j@k@l@y./+J+m@n@(+ @.@9@/@(@0@o@p@q@r@  e@f@s@t@u@",
"v@w@l@x@{@y@z@A@B@C@D@+@E@(@F@G@H@I@J@K@L@M@s@N@O@P@",
"Q@R@F {@y@Z+S@T@U@V@W@X@Y@Z@`@ #.#+#@###$#%#&#*#=#-#",
";#>#@.H #.,#'#)#!#~#{#]#J@^#/#(#_#:#<#[#.#}#  |#1#2#",
"3#4#H #.J %.5#6#7#8#9#0#a#b#c#d#e#f#g#+#h#i#  j#k#l#",
"m#n#I J %.L &.o#j.E.p#q#r#s#t#u#e@v#w#x#^#y#  z#A#B#",
"C#D#E#F#G#H#I#J#K#L#M#N#O#P#Q#R#S#T#U#V#W#X#Y#Z#`# $",
".$+$@$#$$$%$&$*$=$-$;$>$,$'$)$!$~${$]$^$/$($_$:$<$[$"};
