/* XPM */
static char * grey_main_menu_xpm[] = {
"24 24 14 1",
" 	c None",
".	c #3C3A3A",
"+	c #5A5858",
"@	c #3B3A3A",
"#	c #5E5B5B",
"$	c #C0B9B9",
"%	c #595757",
"&	c #424141",
"*	c #777474",
"=	c #3F3E3E",
"-	c #444343",
";	c #7D7A7A",
">	c #3B3B3B",
",	c #3A3939",
"                        ",
"                        ",
"   .+++++++++++++++@    ",
"   #$$$$$$$$$$$$$$$%    ",
"   #$$$$$$$$$$$$$$$%    ",
"   &***************=    ",
"                        ",
"                        ",
"                        ",
"                        ",
"   .+++++++++++++++@    ",
"   #$$$$$$$$$$$$$$$%    ",
"   #$$$$$$$$$$$$$$$%    ",
"   &***************=    ",
"                        ",
"                        ",
"                        ",
"   -;;;;;;;;;;;;;;;&    ",
"   #$$$$$$$$$$$$$$$%    ",
"   #$$$$$$$$$$$$$$$%    ",
"   >%%%%%%%%%%%%%%%,    ",
"                        ",
"                        ",
"                        "};
