<?xml version="1.0" encoding="UTF-8" standalone="no"?>
<!-- Created with Inkscape (http://www.inkscape.org/) -->

<svg
   xmlns:dc="http://purl.org/dc/elements/1.1/"
   xmlns:cc="http://creativecommons.org/ns#"
   xmlns:rdf="http://www.w3.org/1999/02/22-rdf-syntax-ns#"
   xmlns:svg="http://www.w3.org/2000/svg"
   xmlns="http://www.w3.org/2000/svg"
   xmlns:sodipodi="http://sodipodi.sourceforge.net/DTD/sodipodi-0.dtd"
   xmlns:inkscape="http://www.inkscape.org/namespaces/inkscape"
   width="210mm"
   height="297mm"
   id="svg2"
   version="1.1"
   inkscape:version="0.48.4 r9939"
   sodipodi:docname="Nouveau document 1">
  <defs
     id="defs4" />
  <sodipodi:namedview
     id="base"
     pagecolor="#ffffff"
     bordercolor="#666666"
     borderopacity="1.0"
     inkscape:pageopacity="0.0"
     inkscape:pageshadow="2"
     inkscape:zoom="0.74879164"
     inkscape:cx="372.04724"
     inkscape:cy="526.18109"
     inkscape:document-units="px"
     inkscape:current-layer="layer1"
     showgrid="false"
     inkscape:window-width="1231"
     inkscape:window-height="998"
     inkscape:window-x="49"
     inkscape:window-y="0"
     inkscape:window-maximized="1" />
  <metadata
     id="metadata7">
    <rdf:RDF>
      <cc:Work
         rdf:about="">
        <dc:format>image/svg+xml</dc:format>
        <dc:type
           rdf:resource="http://purl.org/dc/dcmitype/StillImage" />
        <dc:title></dc:title>
      </cc:Work>
    </rdf:RDF>
  </metadata>
  <g
     inkscape:label="Calque 1"
     inkscape:groupmode="layer"
     id="layer1">
    <g
       id="g3772">
      <path
         inkscape:connector-curvature="0"
         id="path3768"
         d="m 229.34638,635.65715 0,-15.41878 3.99746,0 c 3.36294,0 3.99746,-0.068 3.99746,-0.4283 0,-0.29913 0.3014,-0.4283 0.99936,-0.4283 0.80901,0 0.99937,-0.10877 0.99937,-0.57106 0,-0.50185 0.19036,-0.57107 1.57043,-0.57107 1.20559,0 1.57043,-0.0995 1.57043,-0.4283 0,-0.29913 0.3014,-0.4283 0.99937,-0.4283 0.80901,0 0.99936,-0.10877 0.99936,-0.57106 0,-0.31726 0.19036,-0.57107 0.4283,-0.57107 0.23557,0 0.4283,-0.19273 0.4283,-0.4283 0,-0.29913 0.3014,-0.4283 0.99937,-0.4283 0.80901,0 0.99936,-0.10877 0.99936,-0.57106 0,-0.38071 0.19036,-0.57107 0.57107,-0.57107 0.31726,0 0.57107,-0.19036 0.57107,-0.4283 0,-0.23556 0.19273,-0.4283 0.4283,-0.4283 0.23794,0 0.4283,-0.25381 0.4283,-0.57107 0,-0.38071 0.19035,-0.57106 0.57106,-0.57106 0.31726,0 0.57107,-0.19036 0.57107,-0.4283 0,-0.23557 0.19273,-0.4283 0.4283,-0.4283 0.23794,0 0.4283,-0.25381 0.4283,-0.57107 0,-0.38071 0.19035,-0.57106 0.57106,-0.57106 0.31726,0 0.57107,-0.19036 0.57107,-0.4283 0,-0.23557 0.19273,-0.4283 0.4283,-0.4283 0.23794,0 0.4283,-0.25381 0.4283,-0.57107 0,-0.38071 0.19035,-0.57106 0.57106,-0.57106 0.46229,0 0.57107,-0.19036 0.57107,-0.99937 0,-0.69797 0.12917,-0.99936 0.4283,-0.99936 0.23556,0 0.4283,-0.19274 0.4283,-0.4283 0,-0.23795 0.25381,-0.4283 0.57106,-0.4283 0.4623,0 0.57107,-0.19036 0.57107,-0.99937 0,-0.69797 0.12917,-0.99936 0.4283,-0.99936 0.29913,0 0.4283,-0.3014 0.4283,-0.99937 0,-0.80901 0.10877,-0.99937 0.57107,-0.99937 0.46229,0 0.57106,-0.19035 0.57106,-0.99936 0,-0.69797 0.12917,-0.99937 0.4283,-0.99937 0.29913,0 0.4283,-0.30139 0.4283,-0.99936 0,-0.80901 0.10877,-0.99937 0.57107,-0.99937 0.50184,0 0.57106,-0.19035 0.57106,-1.57043 0,-1.20558 0.0995,-1.57043 0.4283,-1.57043 0.3236,0 0.4283,-0.34898 0.4283,-1.42767 0,-1.2373 0.0761,-1.42766 0.57107,-1.42766 0.50184,0 0.57106,-0.19036 0.57106,-1.57043 0,-1.20558 0.0995,-1.57043 0.4283,-1.57043 0.34712,0 0.4283,-0.46003 0.4283,-2.42703 0,-2.23668 0.0448,-2.42703 0.57107,-2.42703 0.53481,0 0.57106,-0.19036 0.57106,-2.9981 0,-2.47462 0.0748,-2.9981 0.4283,-2.9981 0.36287,0 0.4283,-0.69797 0.4283,-4.56852 0,-4.37818 0.0238,-4.56853 0.57107,-4.56853 0.54931,0 0.57106,-0.19036 0.57106,-4.99683 l 0,-4.99683 -18.98794,0 -18.98794,0 0,-34.97779 0,-34.97779 34.83502,0 34.83503,0 0,41.40228 c 0,36.61168 -0.0496,41.40229 -0.4283,41.40229 -0.36287,0 -0.4283,0.69797 -0.4283,4.56853 0,4.37817 -0.0238,4.56852 -0.57107,4.56852 -0.53934,0 -0.57106,0.19036 -0.57106,3.4264 0,2.85533 -0.0714,3.42639 -0.4283,3.42639 -0.34899,0 -0.4283,0.47589 -0.4283,2.5698 0,2.37944 -0.0423,2.5698 -0.57107,2.5698 -0.49492,0 -0.57106,0.19036 -0.57106,1.42766 0,1.07868 -0.1047,1.42767 -0.4283,1.42767 -0.33993,0 -0.4283,0.41243 -0.4283,1.99873 0,1.80837 -0.0544,1.99873 -0.57107,1.99873 -0.51668,0 -0.57107,0.19036 -0.57107,1.99873 0,1.5863 -0.0884,1.99873 -0.4283,1.99873 -0.29913,0 -0.42829,0.3014 -0.42829,0.99937 0,0.80901 -0.10878,0.99936 -0.57107,0.99936 -0.50185,0 -0.57107,0.19036 -0.57107,1.57044 0,1.20558 -0.0995,1.57043 -0.4283,1.57043 -0.3236,0 -0.4283,0.34898 -0.4283,1.42766 0,1.23731 -0.0761,1.42767 -0.57106,1.42767 -0.46229,0 -0.57107,0.19035 -0.57107,0.99936 0,0.69797 -0.12917,0.99937 -0.4283,0.99937 -0.29913,0 -0.4283,0.30139 -0.4283,0.99936 0,0.80901 -0.10877,0.99937 -0.57106,0.99937 -0.46229,0 -0.57107,0.19035 -0.57107,0.99936 0,0.69797 -0.12917,0.99937 -0.4283,0.99937 -0.29913,0 -0.4283,0.3014 -0.4283,0.99936 0,0.80901 -0.10877,0.99937 -0.57106,0.99937 -0.38071,0 -0.57107,0.19036 -0.57107,0.57107 0,0.31725 -0.19036,0.57106 -0.4283,0.57106 -0.29913,0 -0.4283,0.3014 -0.4283,0.99937 0,0.80901 -0.10877,0.99936 -0.57106,0.99936 -0.4623,0 -0.57107,0.19036 -0.57107,0.99937 0,0.69797 -0.12917,0.99936 -0.4283,0.99936 -0.23556,0 -0.4283,0.19274 -0.4283,0.4283 0,0.23795 -0.25381,0.4283 -0.57107,0.4283 -0.38071,0 -0.57106,0.19036 -0.57106,0.57107 0,0.31726 -0.19036,0.57107 -0.4283,0.57107 -0.29913,0 -0.4283,0.30139 -0.4283,0.99936 0,0.80901 -0.10877,0.99937 -0.57107,0.99937 -0.31725,0 -0.57106,0.19035 -0.57106,0.4283 0,0.23556 -0.19274,0.4283 -0.4283,0.4283 -0.23795,0 -0.4283,0.2538 -0.4283,0.57106 0,0.38071 -0.19036,0.57107 -0.57107,0.57107 -0.31726,0 -0.57106,0.19035 -0.57106,0.4283 0,0.23556 -0.19274,0.4283 -0.4283,0.4283 -0.23795,0 -0.4283,0.2538 -0.4283,0.57106 0,0.38071 -0.19036,0.57107 -0.57107,0.57107 -0.31726,0 -0.57106,0.19035 -0.57106,0.4283 0,0.23556 -0.19274,0.4283 -0.4283,0.4283 -0.23795,0 -0.4283,0.2538 -0.4283,0.57106 0,0.38071 -0.19036,0.57107 -0.57107,0.57107 -0.31726,0 -0.57107,0.19036 -0.57107,0.4283 0,0.23556 -0.19273,0.4283 -0.42829,0.4283 -0.23795,0 -0.4283,0.25381 -0.4283,0.57106 0,0.38071 -0.19036,0.57107 -0.57107,0.57107 -0.31726,0 -0.57107,0.19036 -0.57107,0.4283 0,0.23556 -0.19273,0.4283 -0.4283,0.4283 -0.23794,0 -0.4283,0.25381 -0.4283,0.57106 0,0.38071 -0.19035,0.57107 -0.57106,0.57107 -0.31726,0 -0.57107,0.19036 -0.57107,0.4283 0,0.23557 -0.19273,0.4283 -0.4283,0.4283 -0.23794,0 -0.4283,0.25381 -0.4283,0.57107 0,0.46229 -0.19035,0.57106 -0.99936,0.57106 -0.69797,0 -0.99937,0.12917 -0.99937,0.4283 0,0.23794 -0.2538,0.4283 -0.57106,0.4283 -0.38071,0 -0.57107,0.19036 -0.57107,0.57107 0,0.46229 -0.19036,0.57106 -0.99936,0.57106 -0.69797,0 -0.99937,0.12917 -0.99937,0.4283 0,0.29913 -0.3014,0.4283 -0.99937,0.4283 -0.809,0 -0.99936,0.10878 -0.99936,0.57107 0,0.31726 -0.19036,0.57106 -0.4283,0.57106 -0.23557,0 -0.4283,0.19274 -0.4283,0.4283 0,0.29913 -0.3014,0.4283 -0.99937,0.4283 -0.809,0 -0.99936,0.10878 -0.99936,0.57107 0,0.50185 -0.19036,0.57106 -1.57043,0.57106 -1.20559,0 -1.57043,0.0995 -1.57043,0.4283 0,0.29913 -0.3014,0.4283 -0.99937,0.4283 -0.80901,0 -0.99936,0.10878 -0.99936,0.57107 0,0.49492 -0.19036,0.57107 -1.42767,0.57107 -1.07868,0 -1.42766,0.10469 -1.42766,0.4283 0,0.33992 -0.41244,0.42829 -1.99874,0.42829 -1.80837,0 -1.99873,0.0544 -1.99873,0.57107 0,0.53481 -0.19035,0.57107 -2.99809,0.57107 -2.47462,0 -2.9981,0.0748 -2.9981,0.4283 0,0.36439 -0.74556,0.4283 -4.99683,0.4283 l -4.99682,0 0,-15.41879 z"
         style="fill:#1a1a1a;fill-opacity:1;stroke:#ededfa;stroke-width:5;stroke-linecap:round;stroke-linejoin:bevel;stroke-miterlimit:4;stroke-opacity:1;stroke-dasharray:none" />
      <path
         inkscape:connector-curvature="0"
         id="path3770"
         d="m 301.12723,635.34894 0,-15.41878 3.4264,0 c 2.85533,0 3.4264,-0.0714 3.4264,-0.4283 0,-0.32879 0.36484,-0.4283 1.57043,-0.4283 1.38007,0 1.57043,-0.0692 1.57043,-0.57106 0,-0.46229 0.19035,-0.57107 0.99936,-0.57107 0.69797,0 0.99937,-0.12917 0.99937,-0.4283 0,-0.29913 0.3014,-0.4283 0.99936,-0.4283 0.80901,0 0.99937,-0.10877 0.99937,-0.57106 0,-0.4623 0.19036,-0.57107 0.99937,-0.57107 0.69797,0 0.99936,-0.12917 0.99936,-0.4283 0,-0.29913 0.3014,-0.4283 0.99937,-0.4283 0.80901,0 0.99936,-0.10877 0.99936,-0.57106 0,-0.31726 0.19036,-0.57107 0.4283,-0.57107 0.23557,0 0.4283,-0.19274 0.4283,-0.4283 0,-0.23794 0.25381,-0.4283 0.57107,-0.4283 0.38071,0 0.57106,-0.19036 0.57106,-0.57107 0,-0.31725 0.19036,-0.57106 0.4283,-0.57106 0.23557,0 0.4283,-0.19274 0.4283,-0.4283 0,-0.23794 0.25381,-0.4283 0.57107,-0.4283 0.38071,0 0.57106,-0.19036 0.57106,-0.57107 0,-0.31726 0.19036,-0.57106 0.4283,-0.57106 0.23557,0 0.4283,-0.19274 0.4283,-0.4283 0,-0.23795 0.25381,-0.4283 0.57107,-0.4283 0.46229,0 0.57107,-0.19036 0.57107,-0.99937 0,-0.69797 0.12916,-0.99936 0.42829,-0.99936 0.23795,0 0.4283,-0.25381 0.4283,-0.57107 0,-0.38071 0.19036,-0.57106 0.57107,-0.57106 0.46229,0 0.57107,-0.19036 0.57107,-0.99937 0,-0.69797 0.12917,-0.99937 0.4283,-0.99937 0.23556,0 0.42829,-0.19273 0.42829,-0.42829 0,-0.23795 0.25381,-0.4283 0.57107,-0.4283 0.46229,0 0.57107,-0.19036 0.57107,-0.99937 0,-0.69797 0.12917,-0.99937 0.4283,-0.99937 0.29913,0 0.4283,-0.30139 0.4283,-0.99936 0,-0.80901 0.10877,-0.99937 0.57106,-0.99937 0.50185,0 0.57107,-0.19035 0.57107,-1.57043 0,-1.20558 0.0995,-1.57043 0.4283,-1.57043 0.3236,0 0.4283,-0.34898 0.4283,-1.42766 0,-1.23731 0.0761,-1.42767 0.57106,-1.42767 0.4623,0 0.57107,-0.19036 0.57107,-0.99936 0,-0.69797 0.12917,-0.99937 0.4283,-0.99937 0.34898,0 0.4283,-0.47589 0.4283,-2.5698 0,-2.37944 0.0423,-2.56979 0.57106,-2.56979 0.51668,0 0.57107,-0.19036 0.57107,-1.99874 0,-1.58629 0.0884,-1.99873 0.4283,-1.99873 0.35352,0 0.4283,-0.52347 0.4283,-2.99809 0,-2.80774 0.0363,-2.9981 0.57106,-2.9981 0.55103,0 0.57107,-0.19036 0.57107,-5.42513 0,-4.63197 0.0626,-5.42512 0.4283,-5.42512 0.35787,0 0.4283,-0.58693 0.4283,-3.56917 l 0,-3.56916 -18.98794,0 -18.98795,0 0,-34.97779 0,-34.97779 34.97779,0 34.9778,0 0,40.40292 c 0,35.72335 -0.0496,40.40292 -0.4283,40.40292 -0.36287,0 -0.4283,0.69796 -0.4283,4.56852 0,4.37818 -0.0238,4.56853 -0.57107,4.56853 -0.53934,0 -0.57107,0.19036 -0.57107,3.4264 0,2.85533 -0.0714,3.42639 -0.4283,3.42639 -0.35351,0 -0.42829,0.52348 -0.42829,2.9981 0,2.80774 -0.0363,2.9981 -0.57107,2.9981 -0.51668,0 -0.57107,0.19035 -0.57107,1.99873 0,1.58629 -0.0884,1.99873 -0.4283,1.99873 -0.32879,0 -0.4283,0.36485 -0.4283,1.57043 0,1.38008 -0.0692,1.57043 -0.57106,1.57043 -0.51668,0 -0.57107,0.19036 -0.57107,1.99873 0,1.5863 -0.0884,1.99873 -0.4283,1.99873 -0.3236,0 -0.4283,0.34899 -0.4283,1.42767 0,1.23731 -0.0761,1.42766 -0.57106,1.42766 -0.46229,0 -0.57107,0.19036 -0.57107,0.99937 0,0.69797 -0.12917,0.99936 -0.4283,0.99936 -0.3288,0 -0.4283,0.36485 -0.4283,1.57044 0,1.38007 -0.0692,1.57043 -0.57106,1.57043 -0.4623,0 -0.57107,0.19035 -0.57107,0.99936 0,0.69797 -0.12917,0.99937 -0.4283,0.99937 -0.29913,0 -0.4283,0.3014 -0.4283,0.99936 0,0.80901 -0.10877,0.99937 -0.57106,0.99937 -0.4623,0 -0.57107,0.19036 -0.57107,0.99936 0,0.69797 -0.12917,0.99937 -0.4283,0.99937 -0.29913,0 -0.4283,0.3014 -0.4283,0.99937 0,0.80901 -0.10877,0.99936 -0.57107,0.99936 -0.46229,0 -0.57106,0.19036 -0.57106,0.99937 0,0.69797 -0.12917,0.99936 -0.4283,0.99936 -0.29913,0 -0.4283,0.3014 -0.4283,0.99937 0,0.80901 -0.10877,0.99936 -0.57107,0.99936 -0.31726,0 -0.57106,0.19036 -0.57106,0.4283 0,0.23557 -0.19274,0.4283 -0.4283,0.4283 -0.29913,0 -0.4283,0.3014 -0.4283,0.99937 0,0.80901 -0.10878,0.99936 -0.57107,0.99936 -0.38071,0 -0.57106,0.19036 -0.57106,0.57107 0,0.31726 -0.19036,0.57107 -0.4283,0.57107 -0.23557,0 -0.4283,0.19273 -0.4283,0.42829 0,0.23795 -0.25381,0.4283 -0.57107,0.4283 -0.46229,0 -0.57106,0.19036 -0.57106,0.99937 0,0.69797 -0.12917,0.99937 -0.4283,0.99937 -0.23795,0 -0.4283,0.2538 -0.4283,0.57106 0,0.38071 -0.19036,0.57107 -0.57107,0.57107 -0.31726,0 -0.57107,0.19035 -0.57107,0.4283 0,0.23556 -0.19273,0.4283 -0.42829,0.4283 -0.23795,0 -0.4283,0.2538 -0.4283,0.57106 0,0.38071 -0.19036,0.57107 -0.57107,0.57107 -0.31726,0 -0.57107,0.19035 -0.57107,0.4283 0,0.23556 -0.19273,0.4283 -0.4283,0.4283 -0.23794,0 -0.4283,0.2538 -0.4283,0.57106 0,0.38071 -0.19035,0.57107 -0.57106,0.57107 -0.31726,0 -0.57107,0.19036 -0.57107,0.4283 0,0.23794 -0.2538,0.4283 -0.57106,0.4283 -0.38071,0 -0.57107,0.19035 -0.57107,0.57106 0,0.31726 -0.19036,0.57107 -0.4283,0.57107 -0.23556,0 -0.4283,0.19273 -0.4283,0.4283 0,0.23794 -0.25381,0.4283 -0.57106,0.4283 -0.38071,0 -0.57107,0.19036 -0.57107,0.57106 0,0.31726 -0.19036,0.57107 -0.4283,0.57107 -0.23556,0 -0.4283,0.19274 -0.4283,0.4283 0,0.29913 -0.3014,0.4283 -0.99936,0.4283 -0.80901,0 -0.99937,0.10877 -0.99937,0.57107 0,0.38071 -0.19036,0.57106 -0.57107,0.57106 -0.31725,0 -0.57106,0.19036 -0.57106,0.4283 0,0.23557 -0.19274,0.4283 -0.4283,0.4283 -0.23794,0 -0.4283,0.25381 -0.4283,0.57107 0,0.46229 -0.19036,0.57106 -0.99937,0.57106 -0.69796,0 -0.99936,0.12917 -0.99936,0.4283 0,0.29913 -0.3014,0.4283 -0.99937,0.4283 -0.80901,0 -0.99936,0.10878 -0.99936,0.57107 0,0.46229 -0.19036,0.57106 -0.99937,0.57106 -0.69797,0 -0.99936,0.12917 -0.99936,0.4283 0,0.23795 -0.25381,0.4283 -0.57107,0.4283 -0.38071,0 -0.57107,0.19036 -0.57107,0.57107 0,0.49492 -0.19035,0.57106 -1.42766,0.57106 -1.07868,0 -1.42767,0.1047 -1.42767,0.4283 0,0.3288 -0.36484,0.4283 -1.57043,0.4283 -1.38007,0 -1.57043,0.0692 -1.57043,0.57107 0,0.46229 -0.19035,0.57107 -0.99936,0.57107 -0.69797,0 -0.99937,0.12917 -0.99937,0.4283 0,0.33992 -0.41244,0.42829 -1.99873,0.42829 -1.80838,0 -1.99873,0.0544 -1.99873,0.57107 0,0.53481 -0.19036,0.57107 -2.9981,0.57107 -2.47462,0 -2.99809,0.0748 -2.99809,0.4283 0,0.36391 -0.7297,0.4283 -4.85407,0.4283 l -4.85406,0 0,-15.41879 z"
         style="fill:#1a1a1a;fill-opacity:1;stroke:#ebebf2;stroke-width:5;stroke-linecap:round;stroke-linejoin:bevel;stroke-miterlimit:4;stroke-opacity:1;stroke-dasharray:none" />
    </g>
  </g>
</svg>
