/* XPM */
static char * hamburger_light_xpm[] = {
"24 24 2 1",
" 	c None",
".	c #F9F9F9",
"                        ",
"                        ",
"........................",
"........................",
"........................",
"........................",
"........................",
"                        ",
"                        ",
"........................",
"........................",
"........................",
"........................",
"........................",
"                        ",
"                        ",
"........................",
"........................",
"........................",
"........................",
"........................",
"                        ",
"                        ",
"                        "};
