/* XPM */
static char * highlight_xpm[] = {
"24 24 148 2",
"  	c None",
". 	c #E8E8FF",
"+ 	c #E7E7FF",
"@ 	c #E6E6FF",
"# 	c #E8E8EF",
"$ 	c #E9E9E1",
"% 	c #EAEAE2",
"& 	c #EAEAE1",
"* 	c #E8E8F6",
"= 	c #E7E7FE",
"- 	c #F5F567",
"; 	c #FFFF00",
"> 	c #EEEEB2",
", 	c #E7E7FD",
"' 	c #F4F471",
") 	c #EEEEB6",
"! 	c #E8E8FE",
"~ 	c #E8E8FB",
"{ 	c #E8E8FA",
"] 	c #F5F571",
"^ 	c #EFEFB5",
"/ 	c #E8E8FD",
"( 	c #E7E7FC",
"_ 	c #F5F570",
": 	c #E8E8FC",
"< 	c #F4F470",
"[ 	c #F8F700",
"} 	c #EDED00",
"| 	c #F7FA00",
"1 	c #EFEFB4",
"2 	c #E8E8F9",
"3 	c #E9E9F9",
"4 	c #FBFB70",
"5 	c #D0C900",
"6 	c #777200",
"7 	c #515000",
"8 	c #484900",
"9 	c #5C5E00",
"0 	c #8F9800",
"a 	c #FBFE00",
"b 	c #F0F0B3",
"c 	c #E9E9FB",
"d 	c #E9E9F8",
"e 	c #E9E9FA",
"f 	c #FEFF6F",
"g 	c #B1A700",
"h 	c #6C6B00",
"i 	c #909300",
"j 	c #776B00",
"k 	c #000000",
"l 	c #020800",
"m 	c #BBCC00",
"n 	c #F1F0B3",
"o 	c #F7F76F",
"p 	c #EFED00",
"q 	c #F6F800",
"r 	c #DEC800",
"s 	c #151200",
"t 	c #8FA900",
"u 	c #F1F1B3",
"v 	c #EAEAF7",
"w 	c #EAEAF6",
"x 	c #F7F86F",
"y 	c #CAC300",
"z 	c #6D6600",
"A 	c #2F2900",
"B 	c #040300",
"C 	c #8EA900",
"D 	c #F2F2B1",
"E 	c #EBEBF8",
"F 	c #EBEBF5",
"G 	c #EBEBF6",
"H 	c #EAEBFF",
"I 	c #F7F16E",
"J 	c #827800",
"K 	c #110D00",
"L 	c #495400",
"M 	c #BBAD00",
"N 	c #161300",
"O 	c #F1F3FF",
"P 	c #BEB06D",
"Q 	c #2C2000",
"R 	c #091700",
"S 	c #C4CC00",
"T 	c #FFEF00",
"U 	c #1B1800",
"V 	c #ECECF5",
"W 	c #E6E6FE",
"X 	c #F3F4FF",
"Y 	c #AEA06D",
"Z 	c #211500",
"` 	c #041100",
" .	c #D2DC00",
"..	c #DAC600",
"+.	c #141100",
"@.	c #8FAA00",
"#.	c #F3F2B0",
"$.	c #ECECF7",
"%.	c #ECECF3",
"&.	c #ECECF4",
"*.	c #EEF0FF",
"=.	c #DDD06D",
"-.	c #433A00",
";.	c #0B0B00",
">.	c #0F1500",
",.	c #0B0600",
"'.	c #050600",
").	c #A1B1B0",
"!.	c #EFEEF6",
"~.	c #EBEBFE",
"{.	c #FCFD6C",
"].	c #D8D000",
"^.	c #7B7600",
"/.	c #6E7200",
"(.	c #D3DB00",
"_.	c #CEC400",
":.	c #6D6A00",
"<.	c #858C00",
"[.	c #E3E7B0",
"}.	c #ECECF6",
"|.	c #F7F76C",
"1.	c #F2F2AF",
"2.	c #EDEDF5",
"3.	c #EDEDF2",
"4.	c #EDEDF1",
"5.	c #EDEDF0",
"6.	c #EBEBFD",
"7.	c #F3F3AD",
"8.	c #EDEDF3",
"9.	c #ECECFB",
"0.	c #F6F676",
"a.	c #FEFE08",
"b.	c #FEFE13",
"c.	c #FEFE11",
"d.	c #F2F2B3",
"e.	c #F0F0C4",
"f.	c #F4F49D",
"g.	c #F3F3A0",
"h.	c #F4F49F",
"i.	c #EFEFDA",
"j.	c #EDEDEF",
"k.	c #EEEEEF",
"l.	c #EEEEF0",
"m.	c #EAEAF9",
"n.	c #ECECFA",
"o.	c #ECECF9",
"p.	c #EDEDF9",
"q.	c #EAEAF8",
"  . . . . . . . . . . . . . . . . . . . . . . + ",
". @ @ @ @ @ @ @ @ @ @ @ @ @ @ @ @ @ @ @ @ @ @ @ ",
". @ @ @ @ @ @ @ # $ % % % % % & * = = = = = = @ ",
". @ @ @ = = = @ - ; ; ; ; ; ; ; > + , , , , = @ ",
". @ = , , , , @ ' ; ; ; ; ; ; ; ) ! ~ ~ { { , @ ",
". @ = , , , , @ ] ; ; ; ; ; ; ; ^ / { { { ~ , @ ",
". @ , ( ( ( ( + _ ; ; ; ; ; ; ; ^ / { { { { , @ ",
". @ : { { { { + < ; ; [ } | ; ; 1 : 2 2 3 3 , @ ",
". @ ~ { { { { + 4 5 6 7 8 9 0 a b c d d d 3 , @ ",
". @ ~ { { 3 e . f g h i j k l m n c d d d 3 : @ ",
". @ 3 3 3 d 3 . o p q ; r s k t u e v v w v : @ ",
". @ d d d d d . x ; y z A B k C D E F F F G : @ ",
". @ 3 d d d d H I J K L M N k C D E F F F G : @ ",
". @ v G G F G O P Q R S T U k C D E F F V F ~ @ ",
". W F F F F F X Y Z `  ...+.k @.#.$.%.%.%.&.e @ ",
". W F F F F F *.=.-.k ;.>.,.k '.).!.%.%.%.&.e @ ",
". W F F V &.&.~.{.].^./.(._.:.<.[.}.%.%.%.&.e @ ",
". W %.%.%.%.%.~.|.; ; ; ; ; ; ; 1.2.3.4.5.4.3 @ ",
". W %.%.%.%.%.6.|.; ; ; ; ; ; ; 7.8.5.5.5.4.3 @ ",
". W %.%.%.%.8.9.0.a.b.b.b.b.b.c.d.8.5.5.5.4.3 @ ",
". W 4.5.5.5.5.8.e.f.g.g.g.g.g.h.i.4.j.k.k.l.m.@ ",
". W 4.4.4.4.4.4.}.n.n.o.o.p.o.p.3.l.k.k.k.4.3 @ ",
". @ 3 3 3 3 3 3 3 3 3 m.q.m.m.m.m.m.m.m.m.3 ( @ ",
"+ @ @ @ @ @ @ @ @ @ @ @ @ @ @ @ @ @ @ @ @ @ @ + "};
