/* XPM */
static char * highlight_xpm[] = {
"24 24 151 2",
"  	c None",
". 	c #888E9D",
"+ 	c #A5ACB6",
"@ 	c #838898",
"# 	c #FEFDFD",
"$ 	c #FFFFFF",
"% 	c #C0C6CC",
"& 	c #7B8390",
"* 	c #848897",
"= 	c #FCFEFE",
"- 	c #BFC7CC",
"; 	c #848999",
"> 	c #FEFEFD",
", 	c #FFFFFE",
"' 	c #FDFDFB",
") 	c #FEFFFE",
"! 	c #C1C7CE",
"~ 	c #FDFDFE",
"{ 	c #FFFFFD",
"] 	c #E0DFE6",
"^ 	c #616D84",
"/ 	c #E2E6E9",
"( 	c #AFB5C0",
"_ 	c #526178",
": 	c #D5D9E0",
"< 	c #FDFFFB",
"[ 	c #DEE0E6",
"} 	c #44516E",
"| 	c #394A6B",
"1 	c #49576F",
"2 	c #FFFFFC",
"3 	c #AFB6BE",
"4 	c #C0C7CD",
"5 	c #557282",
"6 	c #C2C6D0",
"7 	c #43516D",
"8 	c #3A4B69",
"9 	c #374966",
"0 	c #A0A5B2",
"a 	c #BBC2C7",
"b 	c #BDC3C9",
"c 	c #7B9091",
"d 	c #99B55E",
"e 	c #33496E",
"f 	c #394B68",
"g 	c #394B67",
"h 	c #A0A5B5",
"i 	c #FDFEFA",
"j 	c #BDC1C9",
"k 	c #BCC2C7",
"l 	c #788F94",
"m 	c #AAB849",
"n 	c #365074",
"o 	c #364D68",
"p 	c #3A4C6D",
"q 	c #8793A2",
"r 	c #FFFEFF",
"s 	c #BEC3CA",
"t 	c #BDC2CA",
"u 	c #789190",
"v 	c #AFC24C",
"w 	c #315173",
"x 	c #3A4C68",
"y 	c #71926D",
"z 	c #577A7E",
"A 	c #DBDFE2",
"B 	c #BEC1CC",
"C 	c #BCC2C8",
"D 	c #7A928D",
"E 	c #D6D02D",
"F 	c #D9D22A",
"G 	c #3E5F74",
"H 	c #3C4C67",
"I 	c #6B916C",
"J 	c #729876",
"K 	c #CBCFD8",
"L 	c #5D697D",
"M 	c #BCC2CB",
"N 	c #769294",
"O 	c #D0D031",
"P 	c #F2DA13",
"Q 	c #D6D32D",
"R 	c #8BA256",
"S 	c #6F9779",
"T 	c #C7CFD7",
"U 	c #707A8A",
"V 	c #BBC3C7",
"W 	c #769393",
"X 	c #D8D128",
"Y 	c #F1DA14",
"Z 	c #F1DA13",
"` 	c #859C64",
" .	c #C6CEDC",
"..	c #6D7787",
"+.	c #BBC1C9",
"@.	c #79938F",
"#.	c #D6D12C",
"$.	c #F2DA14",
"%.	c #F0D915",
"&.	c #6C977C",
"*.	c #C6CED7",
"=.	c #6E7888",
"-.	c #778191",
";.	c #789397",
">.	c #D8D229",
",.	c #F1D913",
"'.	c #719874",
").	c #CACED8",
"!.	c #6D7786",
"~.	c #C8CED3",
"{.	c #638C89",
"].	c #EBD81B",
"^.	c #EFD916",
"/.	c #749971",
"(.	c #C5CDD6",
"_.	c #707989",
":.	c #EAEAEE",
"<.	c #668F86",
"[.	c #EFD917",
"}.	c #729A77",
"|.	c #C6CCD8",
"1.	c #6C7686",
"2.	c #647080",
"3.	c #EDEBF1",
"4.	c #6F947F",
"5.	c #769673",
"6.	c #C7CED7",
"7.	c #6B7485",
"8.	c #60756B",
"9.	c #DDE0E5",
"0.	c #FCFCF7",
"a.	c #F8F9F9",
"b.	c #E1E4EC",
"c.	c #838DA2",
"d.	c #718765",
"e.	c #E9DC20",
"f.	c #6C8E73",
"g.	c #C1BD77",
"h.	c #7C858E",
"i.	c #687172",
"j.	c #626C6B",
"k.	c #5C7A74",
"l.	c #8DA058",
"m.	c #C2B626",
"n.	c #D6C415",
"o.	c #DAC616",
"p.	c #DAC718",
"q.	c #DAC619",
"r.	c #D7C519",
"s.	c #D8C51A",
"t.	c #C0B21E",
"                                  . +           ",
"                                @ # $ % &       ",
"                              * = $ $ $ -       ",
"                            ; > , ' ) $ $ !     ",
"                          @ ~ { ] ^ / $ $ $ (   ",
"                        _ : < [ } | 1 $ $ 2 3   ",
"                        4 5 6 7 8 9 0 $ $ a     ",
"                      b c d e f g h $ i j       ",
"                    k l m n o p q $ r s         ",
"                  t u v w 8 x y z A B           ",
"                C D E F G H I J K L             ",
"              M N O P P Q R S T U               ",
"            V W X P Y Y Z `  ...                ",
"          +.@.#.P Y $.%.&.*.=.                  ",
"        -.;.>.P Y $.,.'.).!.                    ",
"        ~.{.].$.$.^./.(._.                      ",
"        $ :.<.[.%.}.|.1.                        ",
"      2.$ , 3.4.5.6.7.                          ",
"      8.9.0.a.b.c.=.                            ",
"    d.e.f.g.h.i.j.                              ",
"    k.l.m.n.o.p.q.r.s.r.r.r.r.r.r.r.r.r.r.r.t.  ",
"        Y Y Y Y Y Y Y Y Y Y Y Y Y Y Y Y Y Y Y   ",
"        Y Y Y Y Y Y Y Y Y Y Y Y Y Y Y Y Y Y Y   ",
"          Y Y Y Y Y Y Y Y Y Y Y Y Y Y Y Y Y Y   "};
