/* XPM */
static char * quotation_xpm[] = {
"24 24 119 2",
"  	c None",
". 	c #E8E8FF",
"+ 	c #E7E7FF",
"@ 	c #E6E6FF",
"# 	c #E7E7FE",
"$ 	c #E6E6FE",
"% 	c #E7E7FD",
"& 	c #E7E7FC",
"* 	c #E8E8FB",
"= 	c #E8E8FA",
"- 	c #E8E8FE",
"; 	c #EAEAFF",
"> 	c #E9E8FD",
", 	c #EBECFF",
"' 	c #E9E9FA",
") 	c #E8E8FD",
"! 	c #E8E9FC",
"~ 	c #E8E5F4",
"{ 	c #D4D5E7",
"] 	c #E6E8FB",
"^ 	c #EDECFE",
"/ 	c #EAEBFE",
"( 	c #CFCDDA",
"_ 	c #E8EBFF",
": 	c #F0EFFF",
"< 	c #E9E8FA",
"[ 	c #E8E8FC",
"} 	c #EDEFFF",
"| 	c #C6BDC2",
"1 	c #605B5D",
"2 	c #606573",
"3 	c #C2C9DF",
"4 	c #E7E9FC",
"5 	c #E8E9FB",
"6 	c #EDE6F0",
"7 	c #4F494A",
"8 	c #666B79",
"9 	c #A4A8B9",
"0 	c #E3E7FA",
"a 	c #EAE9F9",
"b 	c #E9E9F9",
"c 	c #EEEAF7",
"d 	c #807472",
"e 	c #000000",
"f 	c #00010E",
"g 	c #A7B0C6",
"h 	c #EBECFD",
"i 	c #EDEEFF",
"j 	c #B9A79E",
"k 	c #020000",
"l 	c #2F3D51",
"m 	c #E9EDFF",
"n 	c #EAE9F8",
"o 	c #E9E9F8",
"p 	c #EFF0FF",
"q 	c #C3BABD",
"r 	c #362A22",
"s 	c #324155",
"t 	c #C7CDE1",
"u 	c #ECECFB",
"v 	c #F6F7FF",
"w 	c #544337",
"x 	c #020101",
"y 	c #7186A3",
"z 	c #EFEEFD",
"A 	c #EAEAFA",
"B 	c #EBE6EE",
"C 	c #7F736F",
"D 	c #7F8BA0",
"E 	c #E5E9FB",
"F 	c #ECEDFD",
"G 	c #D6C7C4",
"H 	c #16110E",
"I 	c #162436",
"J 	c #DEE3F5",
"K 	c #EBEAF8",
"L 	c #EAEAF7",
"M 	c #EBEBF6",
"N 	c #EAEAF6",
"O 	c #EEEFFF",
"P 	c #B9B0B2",
"Q 	c #261A10",
"R 	c #192434",
"S 	c #B1B9CE",
"T 	c #F3F5FF",
"U 	c #7A675A",
"V 	c #060503",
"W 	c #8A9EB9",
"X 	c #EFEEF8",
"Y 	c #EBEBF5",
"Z 	c #E9E9FB",
"` 	c #CEC9D0",
" .	c #5F544E",
"..	c #556376",
"+.	c #DAE2F2",
"@.	c #EDEDF7",
"#.	c #F5F4FC",
"$.	c #786A61",
"%.	c #1E2F44",
"&.	c #E4E7F2",
"*.	c #EAEAF4",
"=.	c #E8E8F0",
"-.	c #C2C2CA",
";.	c #CCCED8",
">.	c #ECEDF7",
",.	c #E7E7F0",
"'.	c #D0CACB",
").	c #BEC4D4",
"!.	c #ECECF5",
"~.	c #ECECF4",
"{.	c #ECECF3",
"].	c #EDEDF2",
"^.	c #EDEDF1",
"/.	c #EDEDF0",
"(.	c #ECECF2",
"_.	c #EDEDEF",
":.	c #EEEEEF",
"<.	c #EEEEEE",
"[.	c #EEEEF1",
"  . . . . . . . . . . . . . . . . . . . . . . + ",
". @ @ @ @ @ @ @ @ @ @ @ @ @ @ @ @ @ @ @ @ @ @ + ",
". @ @ @ @ @ @ @ @ + # # # # # # # # # # # # # + ",
". @ @ @ $ # # % % % % % % % % % % % % % & % # + ",
". @ # % % % % % % % % % % % % % & & * * = = % @ ",
". @ # % % % % % - ; > & * * = , ' = = = = = % @ ",
". @ ) & & & * ! ~ { ] ^ = = / ( _ : < = = = % @ ",
". @ [ = = = = } | 1 2 3 4 5 6 7 8 9 0 a b b % @ ",
". @ * = = = ! c d e f g h i j k e l m n o b % @ ",
". @ * = = b p q r e s t u v w x e y z o o b & @ ",
". @ b o o A B C e e D E F G H e I J K L M N * @ ",
". @ b o o O P Q e R S z T U V e W X Y Y Y M Z @ ",
". @ b o o u `  .e ..+.@.#.$.k %.&.Y Y Y Y M Z @ ",
". @ L M M Y *.=.-.;.>.Y Y ,.'.).Y Y Y Y !.!.* @ ",
". $ Y Y Y Y Y Y Y Y Y Y Y Y !.~.~.~.{.{.{.~.' @ ",
". $ Y Y Y Y Y Y Y !.~.~.{.{.{.{.{.{.{.{.{.~.' @ ",
". $ Y Y !.~.~.{.{.{.{.{.{.{.{.{.{.{.{.{.{.~.' @ ",
". $ {.{.{.{.{.{.{.{.{.{.{.{.{.{.{.].].^./.^.b @ ",
". $ {.{.{.{.{.{.{.{.(.].].^.^././././././.^.b @ ",
". $ {.(.(.(.].^.^.^./././././././././././.^.b @ ",
". $ ^././._./././././././././._._._._.:.<.:.o @ ",
". $ ].(.(.(.(.(.(.(.(.^.^.^.^.[.^.^./././.^.b @ ",
"+ @ * * * * * * * * * = ' ' = = = = = = ' * % @ ",
". + + + + + + + + + + + + + + + + + + + + + + . "};
