/* XPM */
static char * quotation_xpm[] = {
"24 24 67 1",
" 	c None",
".	c #D9D9D9",
"+	c #DBDBDB",
"@	c #D8D8D8",
"#	c #CACACA",
"$	c #808080",
"%	c #858585",
"&	c #848484",
"*	c #989898",
"=	c #888888",
"-	c #909090",
";	c #DADADA",
">	c #737373",
",	c #000000",
"'	c #CCCCCC",
")	c #666666",
"!	c #262626",
"~	c #1A1A1A",
"{	c #E3E3E3",
"]	c #7E7E7E",
"^	c #020202",
"/	c #D7D7D7",
"(	c #CFCFCF",
"_	c #0D0D0D",
":	c #AFAFAF",
"<	c #2F2F2F",
"[	c #8D8D8D",
"}	c #BEBEBE",
"|	c #050505",
"1	c #D1D1D1",
"2	c #0E0E0E",
"3	c #090909",
"4	c #A1A1A1",
"5	c #B3B3B3",
"6	c #C1C1C1",
"7	c #060606",
"8	c #7D7D7D",
"9	c #DFDFDF",
"0	c #5A5A5A",
"a	c #414141",
"b	c #DCDCDC",
"c	c #ABABAB",
"d	c #1B1B1B",
"e	c #E2E2E2",
"f	c #E6E6E6",
"g	c #DEDEDE",
"h	c #646464",
"i	c #838383",
"j	c #C8C8C8",
"k	c #E5E5E5",
"l	c #181818",
"m	c #8E8E8E",
"n	c #D0D0D0",
"o	c #A4A4A4",
"p	c #545454",
"q	c #3E3E3E",
"r	c #969696",
"s	c #121212",
"t	c #D4D4D4",
"u	c #2D2D2D",
"v	c #525252",
"w	c #939393",
"x	c #747474",
"y	c #5F5F5F",
"z	c #E4E4E4",
"A	c #C2C2C2",
"B	c #BDBDBD",
"                        ",
"                        ",
"                        ",
"                        ",
"     .++++@     @++++@  ",
"    @#$%&*.@    +=%%-.@ ",
"    ;>,,,&@    .',,,)@  ",
"    +!,,~{@    ;],,^/@  ",
"   @(_,,:.     +<,,[+   ",
"   @}|,~@@    @12,3(@   ",
"   .4,,5.     @67,8+    ",
"   90,ab      .c,de@    ",
"   f2,c@      gh,i@     ",
"  @j,ae       kl_+@     ",
"  @m,'@      @n,o;      ",
"  @pq.       @rst@      ",
"  ;un@       @vw.       ",
" @bx+        .yz@       ",
" @(A@       @.B@        ",
" @@.         @.         ",
"                        ",
"                        ",
"                        ",
"                        "};
