/* XPM */
static char * scheduler_xpm[] = {
"24 24 68 1",
" 	c None",
".	c #BEBEBE",
"+	c #C1C2C2",
"@	c #CED4D6",
"#	c #D2D9DB",
"$	c #BFBFBF",
"%	c #CED3D5",
"&	c #D6DFE2",
"*	c #D1D9DB",
"=	c #D9D1D2",
"-	c #D7D6D8",
";	c #E67E70",
">	c #ED4C35",
",	c #DDB5B2",
"'	c #ED4F3A",
")	c #F03E25",
"!	c #E7796A",
"~	c #D6DDDF",
"{	c #D9CDCC",
"]	c #DCBAB6",
"^	c #EF4229",
"/	c #DAC2C0",
"(	c #E96B5A",
"_	c #EF4128",
":	c #E0A098",
"<	c #D9CACA",
"[	c #EE4B35",
"}	c #E2958A",
"|	c #EE4F39",
"1	c #F04028",
"2	c #DDB2AD",
"3	c #EC5A45",
"4	c #E86F5F",
"5	c #D6DDE0",
"6	c #E19D94",
"7	c #EF4730",
"8	c #DBC5C4",
"9	c #E86D5C",
"0	c #EC5B47",
"a	c #D7D8D9",
"b	c #E77A6B",
"c	c #EC543F",
"d	c #D8D3D4",
"e	c #E58578",
"f	c #D9CCCB",
"g	c #D7DBDD",
"h	c #EA6350",
"i	c #EA6654",
"j	c #D7DCDF",
"k	c #E0A097",
"l	c #EF422A",
"m	c #DCBBB7",
"n	c #ED513C",
"o	c #E96A59",
"p	c #E0A59D",
"q	c #DBC1BF",
"r	c #EF452D",
"s	c #E48B7E",
"t	c #DEACA7",
"u	c #F03F26",
"v	c #E87161",
"w	c #D6DEE1",
"x	c #F04027",
"y	c #EA604D",
"z	c #D7D8DA",
"A	c #D9CFD0",
"B	c #BEC0C0",
"C	c #CDD3D5",
" ...................... ",
".+@##################@+.",
"$%&&&&&&&&&&&&&&&&&&&&%$",
".*&&&&&&&&&&&&&&&&&&&&*.",
".*&&&&&&&&&&&&&&&&&&&&*.",
".*&&&&&&&&&&&&&&&&&=&&*.",
".*&&&&&&&&&&&&&&&-;>&&*.",
".*&&&&&&&&&&&&&&,')!&&*.",
".*&&~{&&&&&&&&&]^)^/&&*.",
".*&&(_:&&&&&&&<[))}&&&*.",
".*&&|)12&&&&&-3))45&&&*.",
".*&&6))78&&&~9))0a&&&&*.",
".*&&&b))cd&&e))>f&&&&&*.",
".*&&&gh))ijk))lm&&&&&&*.",
".*&&&&=n))o_))p&&&&&&&*.",
".*&&&&&qr))))s&&&&&&&&*.",
".*&&&&&&tu))vw&&&&&&&&*.",
".*&&&&&&&}xyz&&&&&&&&&*.",
".*&&&&&&&&Aw&&&&&&&&&&*.",
".*&&&&&&&&&&&&&&&&&&&&*.",
".*&&&&&&&&&&&&&&&&&&&&*.",
"B%&&&&&&&&&&&&&&&&&&&&CB",
"$+@******************@+$",
" $...................$$ "};
