/* XPM */
static char * settings_xpm[] = {
"24 24 12 1",
" 	c None",
".	c #686262",
"+	c #686161",
"@	c #676161",
"#	c #686060",
"$	c #676262",
"%	c #696161",
"&	c #696262",
"*	c #696060",
"=	c #6A6060",
"-	c #666161",
";	c #676060",
"                        ",
"          ..++@         ",
"         ++++++         ",
"         ++++++         ",
"    +    +# +$#   +@    ",
"   %++$  +++++#  +++.   ",
"   +++&.++++++++@#+++   ",
"  +++#++++++++++++++++  ",
"  ++++++++++++++++ +++  ",
" %++*.++++++++++++++++  ",
"   + ++++++++++++++     ",
"     ++++++++++++++     ",
"     ++++++++++++++     ",
"   & ++++++++++++++=++  ",
"  ++++++++++++++++#+++$ ",
"  +++ ++++++++++++.+++  ",
"  +++++++++++++++.++++  ",
"   +++++++++++++..+++   ",
"   .++.  #+++++   +++   ",
"    .    +-$ ;#    ;    ",
"         ++++++         ",
"         ++++++         ",
"         #+@.%          ",
"                        "};
