/* XPM */
static char * settings2_xpm[] = {
"24 24 3 1",
" 	c None",
".	c #282828",
"+	c #F9F6F6",
"  ....                  ",
"  .++.                  ",
"...++...................",
".++++++++++++++++++++++.",
".++++++++++++++++++++++.",
"...++...................",
"  .++.                  ",
"  .++.   ....           ",
"  ....   .++.           ",
"         .++.           ",
"..........++............",
".++++++++++++++++++++++.",
".++++++++++++++++++++++.",
"..........++............",
"         .++.           ",
"         ....     ....  ",
"                  .++.  ",
"...................++...",
".+++++++++++++++++++++ .",
".++++++++++++++++++++++.",
"...................++...",
"                  .++.  ",
"                  .++.  ",
"                  ....  "};
