/* XPM */
static char * settings_xpm[] = {
"24 24 43 1",
" 	c None",
".	c #3E3D3D",
"+	c #646161",
"@	c #434242",
"#	c #403F3F",
"$	c #424141",
"%	c #414040",
"&	c #5E5B5B",
"*	c #C0B9B9",
"=	c #716E6E",
"-	c #696565",
";	c #6A6767",
">	c #555252",
",	c #A8A2A2",
"'	c #646262",
")	c #5B5858",
"!	c #605C5C",
"~	c #4A4949",
"{	c #837F7F",
"]	c #4D4C4C",
"^	c #494848",
"/	c #464545",
"(	c #635F5F",
"_	c #545252",
":	c #9A9595",
"<	c #585656",
"[	c #535252",
"}	c #4F4E4E",
"|	c #565454",
"1	c #9F9999",
"2	c #515050",
"3	c #484747",
"4	c #7D7A7A",
"5	c #474646",
"6	c #454343",
"7	c #5E5C5C",
"8	c #B6B0B0",
"9	c #666363",
"0	c #615D5D",
"a	c #5A5858",
"b	c #413F3F",
"c	c #3F3E3E",
"d	c #3D3C3C",
".++++@   #++++$   %++++.",
"&****=   +****-   ;****&",
">,,,,'   ),,,,&   !,,,,>",
"                        ",
"                        ",
"                        ",
"                        ",
"~{{{{]   ^{{{{^   ]{{{{/",
"(****;   +****+   ;****&",
"_::::<   [::::[   <::::}",
"                        ",
"                        ",
"                        ",
"                        ",
"|1111)   |1111|   )11112",
"(****;   +****+   ;****&",
"34444~   544445   ~44446",
"                        ",
"                        ",
"                        ",
"                        ",
"788889   088880   98888a",
"(****;   +****+   ;****&",
"b((((#   c((((c   #((((d"};
