/* XPM */
static char * shutter_xpm[] = {
"24 24 342 2",
"  	c None",
". 	c #F1D614",
"+ 	c #F2D414",
"@ 	c #F2D315",
"# 	c #F2D115",
"$ 	c #F2CF15",
"% 	c #F2CD15",
"& 	c #F2CB15",
"* 	c #F2C915",
"= 	c #F2C815",
"- 	c #F2C615",
"; 	c #F2C416",
"> 	c #F3C216",
", 	c #F3C016",
"' 	c #F3BF16",
") 	c #F3BD16",
"! 	c #F3BB16",
"~ 	c #F3B917",
"{ 	c #F3B717",
"] 	c #F4B517",
"^ 	c #F3B317",
"/ 	c #F2D614",
"( 	c #F2D215",
"_ 	c #F2C616",
": 	c #F3C416",
"< 	c #F2C216",
"[ 	c #F3BE16",
"} 	c #F3B517",
"| 	c #F3B117",
"1 	c #F4B017",
"2 	c #F1D414",
"3 	c #F2C515",
"4 	c #E0B619",
"5 	c #AE8E1C",
"6 	c #B08D1D",
"7 	c #DEAE19",
"8 	c #F3B916",
"9 	c #F4B317",
"0 	c #F4B217",
"a 	c #F4B117",
"b 	c #F4AF17",
"c 	c #F4AD17",
"d 	c #F2D214",
"e 	c #E6BE15",
"f 	c #726224",
"g 	c #171D3A",
"h 	c #1D2344",
"i 	c #242A4A",
"j 	c #2B3250",
"k 	c #313550",
"l 	c #816C38",
"m 	c #DCA719",
"n 	c #F4AE17",
"o 	c #F4AD18",
"p 	c #F4AB18",
"q 	c #F1D215",
"r 	c #9C831F",
"s 	c #101637",
"t 	c #161D3E",
"u 	c #1D2343",
"v 	c #242A49",
"w 	c #2B304F",
"x 	c #313754",
"y 	c #B99E20",
"z 	c #C09722",
"A 	c #464B65",
"B 	c #4C516A",
"C 	c #A58338",
"D 	c #F4A918",
"E 	c #DDB615",
"F 	c #816D24",
"G 	c #232A49",
"H 	c #2A304F",
"I 	c #555549",
"J 	c #464C65",
"K 	c #535770",
"L 	c #5A5E76",
"M 	c #7D6C4D",
"N 	c #F4AB17",
"O 	c #F4A718",
"P 	c #977F1E",
"Q 	c #3A372F",
"R 	c #1C2241",
"S 	c #232949",
"T 	c #2A304E",
"U 	c #303654",
"V 	c #373C58",
"W 	c #DBB813",
"X 	c #8C7531",
"Y 	c #525870",
"Z 	c #595E74",
"` 	c #60647A",
" .	c #676B81",
"..	c #957B48",
"+.	c #F4A518",
"@.	c #E7BF16",
"#.	c #151C3F",
"$.	c #AA991C",
"%.	c #AA8A21",
"&.	c #373D59",
"*.	c #767141",
"=.	c #E2A919",
"-.	c #4D526C",
";.	c #52576F",
">.	c #60647B",
",.	c #666B80",
"'.	c #6D7185",
").	c #73778B",
"!.	c #E7A11A",
"~.	c #F4A418",
"{.	c #F2C715",
"].	c #746225",
"^.	c #151C3D",
"/.	c #1C2343",
"(.	c #353841",
"_.	c #4A4947",
":.	c #42465A",
"<.	c #F3C116",
"[.	c #70674A",
"}.	c #5A5F76",
"|.	c #61647B",
"1.	c #676C81",
"2.	c #6F7187",
"3.	c #74798C",
"4.	c #7C7F92",
"5.	c #847D77",
"6.	c #F4A318",
"7.	c #F5A118",
"8.	c #F2C716",
"9.	c #171C3A",
"0.	c #1C2243",
"a.	c #232948",
"b.	c #847B2E",
"c.	c #D3A31D",
"d.	c #3F4460",
"e.	c #8C802F",
"f.	c #EBB018",
"g.	c #807830",
"h.	c #897E30",
"i.	c #908330",
"j.	c #928631",
"k.	c #958833",
"l.	c #978A34",
"m.	c #998B37",
"n.	c #94783C",
"o.	c #A37B39",
"p.	c #F5A218",
"q.	c #F5A018",
"r.	c #F2C516",
"s.	c #DFB519",
"t.	c #1B2242",
"u.	c #222848",
"v.	c #292F4E",
"w.	c #303553",
"x.	c #363B55",
"y.	c #7D6A35",
"z.	c #F3B817",
"A.	c #5B5957",
"B.	c #606474",
"C.	c #676979",
"D.	c #6C6F7E",
"E.	c #727482",
"F.	c #777A87",
"G.	c #7D7F8C",
"H.	c #F09D17",
"I.	c #F59F18",
"J.	c #F59E18",
"K.	c #F3C516",
"L.	c #F3C316",
"M.	c #AE8D1C",
"N.	c #282F4D",
"O.	c #303653",
"P.	c #363C59",
"Q.	c #3D435F",
"R.	c #696646",
"S.	c #F3B417",
"T.	c #E8C31B",
"U.	c #7A7D8F",
"V.	c #808395",
"W.	c #868A9B",
"X.	c #8E90A0",
"Y.	c #9597A6",
"Z.	c #A87B34",
"`.	c #F59C18",
" +	c #F2C316",
".+	c #AF8D1D",
"++	c #29304E",
"@+	c #2F3552",
"#+	c #363C58",
"$+	c #3D425E",
"%+	c #444964",
"&+	c #4B5069",
"*+	c #DDBF18",
"=+	c #F4AC18",
"-+	c #F4AC17",
";+	c #A49D4C",
">+	c #808394",
",+	c #878A9B",
"'+	c #8D90A0",
")+	c #9497A6",
"!+	c #9B9EAB",
"~+	c #A87A35",
"{+	c #F59C19",
"]+	c #F59A19",
"^+	c #DAAC19",
"/+	c #2F3451",
"(+	c #3A3E53",
"_+	c #404559",
":+	c #464A5E",
"<+	c #4C5163",
"[+	c #535668",
"}+	c #68655B",
"|+	c #F3AF17",
"1+	c #A3883F",
"2+	c #F0B918",
"3+	c #858897",
"4+	c #A2A4B1",
"5+	c #DF8E16",
"6+	c #F59A18",
"7+	c #F59819",
"8+	c #F3BC16",
"9+	c #E3AF18",
"0+	c #DAB11B",
"a+	c #D9C61A",
"b+	c #DAC61A",
"c+	c #DAC71B",
"d+	c #DBC71B",
"e+	c #DBC81C",
"f+	c #D3C121",
"g+	c #D2C022",
"h+	c #F4A717",
"i+	c #DCC420",
"j+	c #828596",
"k+	c #CE8D1D",
"l+	c #C2B434",
"m+	c #9497A5",
"n+	c #A6A7B1",
"o+	c #F59619",
"p+	c #F3BA16",
"q+	c #76653C",
"r+	c #4B506A",
"s+	c #525670",
"t+	c #585D75",
"u+	c #5F647A",
"v+	c #666A80",
"w+	c #6C7186",
"x+	c #78787C",
"y+	c #77797D",
"z+	c #86899A",
"A+	c #909095",
"B+	c #91929E",
"C+	c #A1A3AF",
"D+	c #A8AAB5",
"E+	c #A6A2A1",
"F+	c #F59419",
"G+	c #F3BA17",
"H+	c #F3B816",
"I+	c #D9A41B",
"J+	c #494E67",
"K+	c #50556E",
"L+	c #575C73",
"M+	c #5E6378",
"N+	c #64697E",
"O+	c #6B6F84",
"P+	c #727589",
"Q+	c #CD9127",
"R+	c #CDBF2E",
"S+	c #8D909F",
"T+	c #9597A4",
"U+	c #BA8941",
"V+	c #E0C41D",
"W+	c #A8ABB7",
"X+	c #AEB0BA",
"Y+	c #E08C1B",
"Z+	c #F59319",
"`+	c #F3B617",
" @	c #A48238",
".@	c #565C73",
"+@	c #5E6278",
"@@	c #65687E",
"#@	c #6B6F83",
"$@	c #847E75",
"%@	c #808393",
"&@	c #8C909F",
"*@	c #9396A4",
"=@	c #9A9DAA",
"-@	c #A1A2A9",
";@	c #B19F8C",
">@	c #B6A088",
",@	c #F69019",
"'@	c #F3B217",
")@	c #84724D",
"!@	c #64687F",
"~@	c #717588",
"{@	c #787C8F",
"]@	c #E9A116",
"^@	c #A89F43",
"/@	c #8C8F9F",
"(@	c #9A9CAA",
"_@	c #A0A3AF",
":@	c #A7AAB5",
"<@	c #A68F74",
"[@	c #F5911A",
"}@	c #F68F1A",
"|@	c #F4B417",
"1@	c #987C47",
"2@	c #717587",
"3@	c #787C8E",
"4@	c #A48B60",
"5@	c #E5BD1C",
"6@	c #A7A9B5",
"7@	c #ADB0BA",
"8@	c #C4AA8C",
"9@	c #F69119",
"0@	c #F68F19",
"a@	c #F68D1A",
"b@	c #F4AA17",
"c@	c #E8A118",
"d@	c #85786A",
"e@	c #95836C",
"f@	c #9395A4",
"g@	c #A5A6B1",
"h@	c #A4A0A1",
"i@	c #DD8C1D",
"j@	c #F69219",
"k@	c #F68B1A",
"l@	c #F4AA18",
"m@	c #F4A818",
"n@	c #F5A518",
"o@	c #F29F17",
"p@	c #A77934",
"q@	c #A87934",
"r@	c #DF8D16",
"s@	c #F59219",
"t@	c #F6891A",
"u@	c #F4A618",
"v@	c #F59D19",
"w@	c #F59B19",
"x@	c #F6911A",
"y@	c #F5A318",
"z@	c #F4A118",
"A@	c #F6921A",
"    . + @ # $ % & * = - ; > , ' ) ! ~ { ] ^     ",
"  / + ( # $ % & * = _ : < , [ ) ! ~ { } ^ | 1   ",
". 2 ( # $ % & * = 3 4 5 6 7 ) ! 8 { } 9 0 a b c ",
"2 d # $ % & * e f g h i j k ! l m } ^ 0 a n o p ",
"q # $ % & * r s t u v w x y z A B C a 1 b c p D ",
"# $ % & * E F t u G H x I { J B K L M b c N D O ",
"$ % & * P Q ; R S T U V W X B Y Z `  ...p D O +.",
"% & * @.s #.$.%.T U &.*.=.-.;.Z >.,.'.).!.O +.~.",
"& * {.].^./.(.3 _.&.:.<.[.Y }.|.1.2.3.4.5.+.6.7.",
"* 8.3 9.0.a.T b.c.d.e.f.g.h.i.j.k.l.m.n.o.6.p.q.",
"8.r.s.t.u.v.w.x.* y.z.^ a a A.B.C.D.E.F.G.H.I.J.",
"K.L.M.S N.O.P.Q.R.S.S.a 1 c T.).U.V.W.X.Y.Z.J.`.",
" +> .+++@+#+$+%+&+*+a 1 n =+-+;+>+,+'+)+!+~+{+]+",
"> , ^+/+(+_+:+<+[+}+|+c -+1 1+2+3+'+)+!+4+5+6+7+",
", [ 8+9+0+a+b+c+d+e+f+g+h+i+j+k+l+m+!+4+n+]+7+o+",
"[ 8+p+q+%+r+s+t+u+v+w+x+^ y+z+A+N B+C+D+E+7+o+F+",
"8+G+H+I+J+K+L+M+N+O+P+Q+R+z+S+T+U+V+W+X+Y+o+F+Z+",
"p+z.`+}  @.@+@@@#@P+$@p+%@&@*@=@-@]+;@>@o+F+Z+,@",
"H+`+S.9 '@)@!@#@~@{@]@^@/@*@(@_@:@<@7+o+F+Z+[@}@",
"`+|@^ 0 1 n 1@2@3@4@5@'+*@(@_@6@7@8@o+F+Z+9@0@a@",
"S.'@0 1 n -+b@c@d@+.e@f@(@_@g@h@i@o+F+j@[@0@a@k@",
"^ 1 1 n -+l@m@O n@6.o@p@q@r@]+7+o+F+s@9@}@a@k@t@",
"  |+n -+l@m@u@+.6.7.I.v@w@]+7+o+F+j@x@}@a@k@t@  ",
"    -+l@m@u@+.y@z@I.v@{+]+7+o+F+A@x@}@a@k@t@    "};
