/* XPM */
static char * star_highlight_xpm[] = {
"24 24 61 1",
" 	c None",
".	c #686161",
"+	c #696161",
"@	c #676161",
"#	c #726A5E",
"$	c #7E775A",
"%	c #686262",
"&	c #A29E4F",
"*	c #B1AD4A",
"=	c #D8D53E",
"-	c #E2E03B",
";	c #676060",
">	c #696262",
",	c #76705D",
"'	c #FDFD33",
")	c #FFFF32",
"!	c #7C765A",
"~	c #686060",
"{	c #ADA94B",
"]	c #B0AC4A",
"^	c #ACA84C",
"/	c #AFAB4B",
"(	c #C0BD45",
"_	c #FEFD32",
":	c #B8B448",
"<	c #A29D4F",
"[	c #9E9950",
"}	c #9A9552",
"|	c #969052",
"1	c #70695E",
"2	c #686261",
"3	c #8C8756",
"4	c #F0EF37",
"5	c #F8F835",
"6	c #9F9A50",
"7	c #756E5D",
"8	c #D8D63E",
"9	c #E1E03B",
"0	c #7E785A",
"a	c #6A6260",
"b	c #CAC842",
"c	c #CCC942",
"d	c #6B6560",
"e	c #928C54",
"f	c #868058",
"g	c #ABA74C",
"h	c #979352",
"i	c #696060",
"j	c #DCDA3D",
"k	c #F9F934",
"l	c #C1BE45",
"m	c #C8C443",
"n	c #C4C245",
"o	c #DEDC3D",
"p	c #8F8955",
"q	c #F1F037",
"r	c #696261",
"s	c #736D5E",
"t	c #D1D041",
"u	c #878057",
"v	c #6E675E",
"                        ",
"           .+           ",
"           ..@          ",
"          ....          ",
"          ....          ",
"          .#$.          ",
"         %.&*..         ",
"         ..=-..         ",
" .;>..;%..,')!...~@     ",
"~.........{))]..........",
" ~..#^///(_))':<[}|1..2 ",
"  +..34))))))))))56..@  ",
"    ..78))))))))90...   ",
"     ..ab))))))cd..     ",
"      ..e))))))f.+      ",
"      ..g))))))h.i      ",
"      ..j)klm_)n..      ",
"      .,_o0..p4qr.      ",
"     +.&*a....stu.      ",
"     ..v...  ...7.i     ",
"     ....     ;....     ",
"    ;...        ...     ",
"    ..>          ..     ",
"                        "};
