/* XPM */
static char * star_highlight_xpm[] = {
"24 24 209 2",
"  	c None",
". 	c #FFB232",
"+ 	c #FFAF30",
"@ 	c #FFE1A6",
"# 	c #FFE0A7",
"$ 	c #FFB331",
"% 	c #FFEDC3",
"& 	c #FFECC1",
"* 	c #FFB33A",
"= 	c #FFDC96",
"- 	c #FFE8AA",
"; 	c #FFE4A4",
"> 	c #FFDB9A",
", 	c #FFAE1E",
"' 	c #FFECB5",
") 	c #FFE49C",
"! 	c #FFE197",
"~ 	c #FFE5AC",
"{ 	c #FFB337",
"] 	c #FFD884",
"^ 	c #FFE69B",
"/ 	c #FFE290",
"( 	c #FFDF8B",
"_ 	c #FFDC87",
": 	c #FFD68D",
"< 	c #FFA710",
"[ 	c #FFEBA9",
"} 	c #FFE48A",
"| 	c #FFE084",
"1 	c #FFDD7F",
"2 	c #FFD979",
"3 	c #FFDF98",
"4 	c #FFAE2F",
"5 	c #FFA600",
"6 	c #FFB21B",
"7 	c #FFC952",
"8 	c #FFD676",
"9 	c #FFE99B",
"0 	c #FFE78F",
"a 	c #FFE27E",
"b 	c #FFDE79",
"c 	c #FFDB73",
"d 	c #FFD66D",
"e 	c #FFD46D",
"f 	c #FFD98A",
"g 	c #FFCD74",
"h 	c #FFC669",
"i 	c #FFBB4E",
"j 	c #FFAE33",
"k 	c #FFA111",
"l 	c #FF9900",
"m 	c #FFC247",
"n 	c #FFF3AB",
"o 	c #FFF6AF",
"p 	c #FFF6B0",
"q 	c #FFF3A0",
"r 	c #FFEF8F",
"s 	c #FFEB83",
"t 	c #FFE87D",
"u 	c #FFE578",
"v 	c #FFE172",
"w 	c #FFDD6D",
"x 	c #FFD967",
"y 	c #FFD561",
"z 	c #FFD05C",
"A 	c #FFCC56",
"B 	c #FFC751",
"C 	c #FFC34D",
"D 	c #FFC253",
"E 	c #FFC25B",
"F 	c #FFC261",
"G 	c #FFC872",
"H 	c #FFAC2E",
"I 	c #FFE487",
"J 	c #FFF798",
"K 	c #FFF388",
"L 	c #FFF082",
"M 	c #FFEE7D",
"N 	c #FFEA77",
"O 	c #FFE772",
"P 	c #FFE36C",
"Q 	c #FFE066",
"R 	c #FFDC61",
"S 	c #FFD85B",
"T 	c #FFD355",
"U 	c #FFCF50",
"V 	c #FFCA4A",
"W 	c #FFC545",
"X 	c #FFC03F",
"Y 	c #FFBA39",
"Z 	c #FFB534",
"` 	c #FFB947",
" .	c #FFB74B",
"..	c #FFE080",
"+.	c #FFF488",
"@.	c #FFF076",
"#.	c #FFED71",
"$.	c #FFEA6B",
"%.	c #FFE666",
"&.	c #FFE25D",
"*.	c #FFD83A",
"=.	c #FFCF1E",
"-.	c #FFC812",
";.	c #FFC30F",
">.	c #FFBF0E",
",.	c #FFBC16",
"'.	c #FFBB1E",
").	c #FFBA27",
"!.	c #FFB82C",
"~.	c #FFBB40",
"{.	c #FFBA4E",
"].	c #FFDE76",
"^.	c #FFF179",
"/.	c #FFED65",
"(.	c #FFEA5F",
"_.	c #FFE240",
":.	c #FFD60A",
"<.	c #FFCF00",
"[.	c #FFCB00",
"}.	c #FFC600",
"|.	c #FFC200",
"1.	c #FFBD00",
"2.	c #FFB900",
"3.	c #FFB400",
"4.	c #FFB000",
"5.	c #FFB41A",
"6.	c #FFB741",
"7.	c #FFD96C",
"8.	c #FFEF68",
"9.	c #FFE533",
"0.	c #FFDB01",
"a.	c #FFD600",
"b.	c #FFD200",
"c.	c #FFCD00",
"d.	c #FFC900",
"e.	c #FFC400",
"f.	c #FFC000",
"g.	c #FFBB00",
"h.	c #FFB700",
"i.	c #FFB917",
"j.	c #FFBA3F",
"k.	c #FFDA5E",
"l.	c #FFE30A",
"m.	c #FFDD00",
"n.	c #FFD900",
"o.	c #FFD400",
"p.	c #FFD000",
"q.	c #FFC700",
"r.	c #FFBE00",
"s.	c #FFBA03",
"t.	c #FFC043",
"u.	c #FFCA42",
"v.	c #FFE505",
"w.	c #FFE000",
"x.	c #FFDB00",
"y.	c #FFD700",
"z.	c #FFBC36",
"A.	c #FFD542",
"B.	c #FFE600",
"C.	c #FFE200",
"D.	c #FFC130",
"E.	c #FFDF3B",
"F.	c #FFE900",
"G.	c #FFE400",
"H.	c #FFCE00",
"I.	c #FFC500",
"J.	c #FFC72C",
"K.	c #F59800",
"L.	c #FFEC37",
"M.	c #FFEB00",
"N.	c #FFE700",
"O.	c #FFDF0A",
"P.	c #FFDC2F",
"Q.	c #FFD633",
"R.	c #FFD30F",
"S.	c #FFC61F",
"T.	c #F7A20D",
"U.	c #FFB412",
"V.	c #FFF427",
"W.	c #FFEE00",
"X.	c #FFEA09",
"Y.	c #FFE730",
"Z.	c #FCC326",
"`.	c #EE9B03",
" +	c #E38F02",
".+	c #F9B221",
"++	c #FFD22F",
"@+	c #FFCC0F",
"#+	c #FFC410",
"$+	c #FAAB1E",
"%+	c #FFC025",
"&+	c #FFF51B",
"*+	c #FFF02D",
"=+	c #FDCA28",
"-+	c #EA9F05",
";+	c #D98C02",
">+	c #F9AE1D",
",+	c #FFCA29",
"'+	c #FFC60E",
")+	c #FBB42A",
"!+	c #FDC82D",
"~+	c #FDDE34",
"{+	c #EDA60D",
"]+	c #D78A03",
"^+	c #F8B122",
"/+	c #FDBA28",
"(+	c #FC9F00",
"_+	c #BE7F00",
":+	c #EC9400",
"                                                ",
"                      . +                       ",
"                      @ #                       ",
"                    $ % & *                     ",
"                    = - ; >                     ",
"                  , ' ) ! ~ {                   ",
"                  ] ^ / ( _ :                   ",
"                < [ } | 1 2 3 4                 ",
"      5 6 7 8 ( 9 0 a b c d e f g h i j k l     ",
"  m n o p q r s t u v w x y z A B C D E F G H   ",
"    I J K L M N O P Q R S T U V W X Y Z `  .    ",
"      ..+.@.#.$.%.&.*.=.-.;.>.,.'.).!.~.{.      ",
"        ].^./.(._.:.<.[.}.|.1.2.3.4.5.6.        ",
"          7.8.9.0.a.b.c.d.e.f.g.h.i.j.          ",
"            k.l.m.n.o.p.[.q.|.r.s.t.            ",
"            u.v.w.x.y.b.c.d.e.f.g.z.            ",
"            A.B.C.m.n.o.p.[.q.|.r.D.            ",
"            E.F.G.w.x.y.b.H.d.I.f.J.K.          ",
"            L.M.N.C.O.P.Q.R.[.q.|.S.T.          ",
"          U.V.W.X.Y.Z.`. +.+++@+I.#+$+          ",
"          %+&+*+=+-+        ;+>+,+'+)+          ",
"          !+~+{+                ]+^+/+          ",
"          (+_+                      :+          ",
"                                                "};
