/* XPM */
static char * strike_light_xpm[] = {
"24 24 8 1",
" 	c None",
".	c #BDC4C4",
"+	c #BBC6C6",
"@	c #BCC5C5",
"#	c #BCC4C4",
"$	c #BCC6C6",
"%	c #BCC7C7",
"&	c #BDC5C5",
"                        ",
"                        ",
"                        ",
"                        ",
"      .++++++++++.      ",
"     @@@@@@@@@@@@@@     ",
"    @@@@@@@@@@@@@@@+    ",
"    @@@@@@@@@@@@@@@#    ",
"    @@@@        @@@#    ",
"    @@@@        @@@#    ",
"    $$$$%      +$$$@    ",
"&@@@@@@@@@@@@@@@@@@@@@@#",
"&@@@@@@@@@@@@@@@@@@@@@@@",
"    $$$$%      +$$$@    ",
"    @@@@        @@@#    ",
"    @@@@        @@@#    ",
"    @@@@@@@@@@@@@@@#    ",
"    @@@@@@@@@@@@@@@+    ",
"     @@@@@@@@@@@@@@     ",
"      @&&&&&&&&&&#      ",
"                        ",
"                        ",
"                        ",
"                        "};
