/* XPM */
static char * subscript_xpm[] = {
"32 32 140 2",
"  	c None",
". 	c #D1D1D1",
"+ 	c #CCCCCC",
"@ 	c #BDBDBD",
"# 	c #BCBCBC",
"$ 	c #C3C3C3",
"% 	c #C8C8C8",
"& 	c #C9C9C9",
"* 	c #BEBEBE",
"= 	c #BABABA",
"- 	c #B3B3B3",
"; 	c #ABABAB",
"> 	c #A7A7A7",
", 	c #A6A6A6",
"' 	c #B0B0B0",
") 	c #C7C7C7",
"! 	c #D6D6D6",
"~ 	c #D7D7D7",
"{ 	c #D3D3D3",
"] 	c #E8E8E8",
"^ 	c #F2F2F2",
"/ 	c #F5F5F5",
"( 	c #EEEEEE",
"_ 	c #EBEBEB",
": 	c #E9E9E9",
"< 	c #E7E7E7",
"[ 	c #EAEAEA",
"} 	c #ECECEC",
"| 	c #EFEFEF",
"1 	c #F3F3F3",
"2 	c #F6F6F6",
"3 	c #F4F4F4",
"4 	c #DDDDDD",
"5 	c #CACACA",
"6 	c #FCFCFC",
"7 	c #F9F9F9",
"8 	c #D0D0D0",
"9 	c #C6C6C6",
"0 	c #F0F0F0",
"a 	c #FAFAFA",
"b 	c #C5C5C5",
"c 	c #B5B5B5",
"d 	c #EDEDED",
"e 	c #DBDBDB",
"f 	c #6A6A6A",
"g 	c #A8A8A8",
"h 	c #F8F8F8",
"i 	c #A1A1A1",
"j 	c #959595",
"k 	c #B8B8B8",
"l 	c #A2A2A2",
"m 	c #F1F1F1",
"n 	c #707070",
"o 	c #6B6B6B",
"p 	c #E6E6E6",
"q 	c #A4A4A4",
"r 	c #B7B7B7",
"s 	c #9C9C9C",
"t 	c #ACACAC",
"u 	c #7F7F7F",
"v 	c #6C6C6C",
"w 	c #CDCDCD",
"x 	c #AAAAAA",
"y 	c #9E9E9E",
"z 	c #979797",
"A 	c #858585",
"B 	c #FFFFFF",
"C 	c #8C8C8C",
"D 	c #7E7E7E",
"E 	c #D5D5D5",
"F 	c #E5E5E5",
"G 	c #A9A9A9",
"H 	c #E2E2E2",
"I 	c #6D6D6D",
"J 	c #717171",
"K 	c #727272",
"L 	c #E4E4E4",
"M 	c #ADADAD",
"N 	c #8E8E8E",
"O 	c #6F6F6F",
"P 	c #7C7C7C",
"Q 	c #9B9B9B",
"R 	c #797979",
"S 	c #939393",
"T 	c #B9B9B9",
"U 	c #767676",
"V 	c #E1E1E1",
"W 	c #9A9A9A",
"X 	c #C1C1C1",
"Y 	c #CBCBCB",
"Z 	c #999999",
"` 	c #8D8D8D",
" .	c #7A7A7A",
"..	c #838383",
"+.	c #7D7D7D",
"@.	c #B6B6B6",
"#.	c #DFDFDF",
"$.	c #989898",
"%.	c #6E6E6E",
"&.	c #000000",
"*.	c #757575",
"=.	c #212121",
"-.	c #C0C0C0",
";.	c #A0A0A0",
">.	c #747474",
",.	c #CECECE",
"'.	c #FDFDFD",
").	c #828282",
"!.	c #191919",
"~.	c #AEAEAE",
"{.	c #E0E0E0",
"].	c #DCDCDC",
"^.	c #1D1D1D",
"/.	c #9D9D9D",
"(.	c #DEDEDE",
"_.	c #E3E3E3",
":.	c #888888",
"<.	c #161616",
"[.	c #101010",
"}.	c #A5A5A5",
"|.	c #0F0F0F",
"1.	c #0C0C0C",
"2.	c #CFCFCF",
"3.	c #848484",
"4.	c #BFBFBF",
"5.	c #D2D2D2",
"6.	c #D4D4D4",
"7.	c #BBBBBB",
"8.	c #1E1E1E",
"9.	c #202020",
"0.	c #2C2C2C",
"a.	c #383838",
"b.	c #969696",
"c.	c #494949",
"d.	c #B2B2B2",
"e.	c #929292",
"f.	c #919191",
"g.	c #909090",
"h.	c #868686",
"i.	c #777777",
"                                                                ",
"                                                                ",
"                                                                ",
"                                                                ",
"          . + @ # $ % & & % $ * # # = - ; > , ' ) ! ~           ",
"        { ] ^ / ( _ _ _ : < [ [ } } } | 1 / 2 2 3 3 ( 4         ",
"      5 < 6 6 6 6 6 6 6 6 6 6 6 6 6 6 6 6 6 6 6 6 6 7 _ 8       ",
"      9 0 a a a a a a a a a a a a a a a a a a a a a 7 ( b       ",
"      c d 7 7 7 7 7 7 7 7 e f f f ~ 7 7 7 7 7 7 7 7 7 } *       ",
"      g | h h h h h h h h i f f f j h h h h h h h h h < k       ",
"      l m 2 2 2 2 2 2 2 ( n f f f o e 2 2 2 2 2 2 2 2 p '       ",
"      q 0 / / / / / / / r f f f f f s / / / / / / / / < t       ",
"      q | 1 1 1 1 1 1 ^ u f f f f f v 4 m 1 1 1 1 1 1 ] ;       ",
"      l | ^ ^ ^ ^ ^ ^ w f f f f f f v q p ^ ^ ^ ^ ^ ^ < x       ",
"      y | m m m m m m z f f A B C o v D E } m m m m m F G       ",
"      s d | | | | | H I f f = | + J v K ; : | | | | | L g       ",
"      s } ( ( ( ( ( M f f o < ( [ N n O P H ( ( ( ( ( H >       ",
"      Q _ d d d d _ R f f S | d F T U f I ' d d d d d V G       ",
"      W [ _ _ _ _ X f f f b H e . Y R f f U < _ _ _ _ V g       ",
"      Z ] [ [ [ [ ` f f f O  ...+.n o f f f @.[ [ [ L #.g       ",
"      $.< : : : ~ o f f f o %.v f f f f f f &.&.&.&.E { ,       ",
"      z F < < < l f f I U A u *.f f f f f &.f = < &.=.-.;.      ",
"      z H p p H >.f o ..,.p ^ '.B B B _ v f f ).F p !.~.s       ",
"      Z {.L L c o f >.t ].F L L L L L ] Z &.&.&.&.&.^.x /.      ",
"      ;.(._._.:.>.D ` . H _._._._._._._.&.&.f f :._.<.> l       ",
"      ' e H V 0 < H : L H H H H H H H H &.B B B h H [./.}.      ",
"      r { {.{.V H V {.{.{.{.{.{.{.{.{.~ |.1.w E 2.[.=.3.y       ",
"        4.5.E { 2.5.6.! E E ! ! ! ! ! w 7.8.9.0.a.b.c.>.        ",
"          = d.l $.j e.f.g.N g.g.g.g.g.g.h.+.*.K i.*.P *.        ",
"                                                                ",
"                                                                ",
"                                                                "};
