/* XPM */
static char * superscript_xpm[] = {
"32 32 125 2",
"  	c None",
". 	c #CBCBCB",
"+ 	c #C9C9C9",
"@ 	c #BDBDBD",
"# 	c #B9B9B9",
"$ 	c #B8B8B8",
"% 	c #B7B7B7",
"& 	c #BABABA",
"* 	c #BBBBBB",
"= 	c #B5B5B5",
"- 	c #B2B2B2",
"; 	c #B4B4B4",
"> 	c #B3B3B3",
", 	c #AFAFAF",
"' 	c #ACACAC",
") 	c #AEAEAE",
"! 	c #C4C4C4",
"~ 	c #C7C7C7",
"{ 	c #D3D3D3",
"] 	c #E1E1E1",
"^ 	c #E8E8E8",
"/ 	c #EBEBEB",
"( 	c #EAEAEA",
"_ 	c #E9E9E9",
": 	c #ECECEC",
"< 	c #DEDEDE",
"[ 	c #CCCCCC",
"} 	c #BCBCBC",
"| 	c #CACACA",
"1 	c #E2E2E2",
"2 	c #F5F5F5",
"3 	c #FBFBFB",
"4 	c #FCFCFC",
"5 	c #F1F1F1",
"6 	c #242424",
"7 	c #282828",
"8 	c #262626",
"9 	c #C0C0C0",
"0 	c #FAFAFA",
"a 	c #000000",
"b 	c #D2D2D2",
"c 	c #B1B1B1",
"d 	c #A7A7A7",
"e 	c #F3F3F3",
"f 	c #F9F9F9",
"g 	c #DBDBDB",
"h 	c #6A6A6A",
"i 	c #D7D7D7",
"j 	c #E3E3E3",
"k 	c #A2A2A2",
"l 	c #A3A3A3",
"m 	c #F8F8F8",
"n 	c #A1A1A1",
"o 	c #959595",
"p 	c #A4A4A4",
"q 	c #A8A8A8",
"r 	c #EFEFEF",
"s 	c #F6F6F6",
"t 	c #EEEEEE",
"u 	c #707070",
"v 	c #6B6B6B",
"w 	c #D9D9D9",
"x 	c #ADADAD",
"y 	c #9C9C9C",
"z 	c #A0A0A0",
"A 	c #ABABAB",
"B 	c #F2F2F2",
"C 	c #7F7F7F",
"D 	c #6C6C6C",
"E 	c #E0E0E0",
"F 	c #9F9F9F",
"G 	c #E7E7E7",
"H 	c #CDCDCD",
"I 	c #080808",
"J 	c #D8D8D8",
"K 	c #E4E4E4",
"L 	c #979797",
"M 	c #858585",
"N 	c #FFFFFF",
"O 	c #8C8C8C",
"P 	c #6F6F6F",
"Q 	c #6D6D6D",
"R 	c #AAAAAA",
"S 	c #A6A6A6",
"T 	c #A9A9A9",
"U 	c #818181",
"V 	c #727272",
"W 	c #E6E6E6",
"X 	c #EDEDED",
"Y 	c #797979",
"Z 	c #939393",
"` 	c #B0B0B0",
" .	c #A5A5A5",
"..	c #C1C1C1",
"+.	c #C6C6C6",
"@.	c #777777",
"#.	c #767676",
"$.	c #8D8D8D",
"%.	c #B6B6B6",
"&.	c #7B7B7B",
"*.	c #DCDCDC",
"=.	c #9E9E9E",
"-.	c #DFDFDF",
";.	c #DDDDDD",
">.	c #747474",
",.	c #FDFDFD",
"'.	c #828282",
").	c #E5E5E5",
"!.	c #DADADA",
"~.	c #9B9B9B",
"{.	c #999999",
"].	c #9A9A9A",
"^.	c #888888",
"/.	c #D6D6D6",
"(.	c #CECECE",
"_.	c #D4D4D4",
":.	c #D1D1D1",
"<.	c #CFCFCF",
"[.	c #D0D0D0",
"}.	c #D5D5D5",
"|.	c #969696",
"1.	c #989898",
"2.	c #929292",
"3.	c #949494",
"4.	c #909090",
"                                                                ",
"                                                                ",
"                                                                ",
"                                                                ",
"          . + @ # # $ # % & * @ * = - ; > , ' ) $ ! ~           ",
"      ! { ] ^ / / ( _ ( _ _ ^ _ ( / : / : < [ = > } } |         ",
"      + 1 2 3 4 4 4 4 4 4 4 4 4 4 4 4 4 2 5 6 7 8 7 ! ! @       ",
"      9 ^ 0 0 0 0 0 0 0 0 0 0 0 0 0 0 0 0 a 0 0 0 a a b c       ",
"      d e f f f f f f f f g h h h i f f f f f f f f a j k       ",
"      l e m m m m m m m m n h h h o m m m a a a a a a g p       ",
"      q r s s s s s s s t u h h h v g s a a s s s s a w k       ",
"      x : 2 2 2 2 2 2 2 % h h h h h y 2 a 2 2 2 2 2 a g z       ",
"      A ( e e e e e e B C h h h h h D E a a e e e a a i F       ",
"      ' G B B B B B B H h h h h h h h l B a a a a B I J z       ",
"      ) K 5 5 5 5 5 5 L h h M N O h h P j 5 5 5 5 5 / J p       ",
"      ' j r r r r r 1 Q h h & r H h h h R r r r r r r ] S       ",
"      T K t t t t t x h h v G t B U h h V W t t t t t 1 q       ",
"      d K X X X X / Y h h Z r X X 9 h h h ` X X X X X 1  .      ",
"      S j / / / / ..h h h +./ / / t @.h h #.G / / / / E k       ",
"      S 1 ( ( ( ( $.h h h h h h h h h h h h %.( ( ( _ < k       ",
"       .E _ _ _ i v h h h h h h h h h h h h &.G _ _ ^ *.=.      ",
"      p -.G G G k h h h h h h h h h h h h h h & G G W g y       ",
"      k ;.W W 1 >.h h Y ,.N N N N N N / D h h '.).W ).!.~.      ",
"      k ;.K K = h h h x K K K K K K K ^ {.h h h 9 K K g ].      ",
"      S g j j M h h h w j j j j j j j j J h h h ^.j j *.=.      ",
"      c /.1 1 f N N N G 1 1 1 1 1 1 1 1 ^ N N N m 1 ] /.x       ",
"      = (.< E E E E E E E E E E E E E E E E E E E E g H >       ",
"      x 9 H { _.{ :.<.[.}.{ b { /././././././././.[.| } R       ",
"        x c q {.|.~.=.1.2.2.3.Z 4.4.4.4.4.4.4.4.|.p x  .        ",
"                                                                ",
"                                                                ",
"                                                                "};
