/* XPM */
static char * text_note_xpm[] = {
"24 24 8 1",
" 	c None",
".	c #686161",
"+	c #696161",
"@	c #696262",
"#	c #686262",
"$	c #676161",
"%	c #696060",
"&	c #686060",
" ...................... ",
"........................",
"........................",
"....                 ...",
"...        +.@       ...",
"...       ....       ...",
"...       .....      ...",
"...       ....       ...",
"...       +...       ...",
"...        ...       ...",
"...        ...       ...",
"...        #.        ...",
"...                  ...",
"...        +.        ...",
"...       $...       ...",
"...       ....       ...",
"...        .%        ...",
"....                 ...",
"........................",
" .........@.............",
" .&+................... ",
"  ...$..                ",
" ....                   ",
"%#                      "};
