/* XPM */
static char * text_note_light_xpm[] = {
"25 24 4 1",
" 	c None",
".	c #E6E6E6",
"+	c #E7E7E7",
"@	c #E5E5E5",
" ....................... ",
" ........................",
" ........................",
" ...                  ...",
" ...        .+        ...",
" ...       ....       ...",
" ...       ....       ...",
" ...       ....       ...",
" ...       ....       ...",
" ...       ...@       ...",
" ...       ...        ...",
" ...        ..        ...",
" ...                  ...",
" ...       @+.        ...",
" ...       ....       ...",
" ...       ....       ...",
" ...       +++        ...",
" ...                  ...",
" ........................",
" ..........@.............",
" ....................... ",
"  ......                 ",
" ....                    ",
".+                       "};
