/* XPM */
static char * undo2_xpm[] = {
"24 24 256 2",
"  	c None",
". 	c #161615",
"+ 	c #111110",
"@ 	c #0D0F0A",
"# 	c #070906",
"$ 	c #0F100F",
"% 	c #181917",
"& 	c #0D100C",
"* 	c #020600",
"= 	c #111B0A",
"- 	c #264511",
"; 	c #35601A",
"> 	c #37611B",
", 	c #274910",
"' 	c #111B09",
") 	c #060A03",
"! 	c #0C0D0B",
"~ 	c #1A1B1A",
"{ 	c #0E0E0D",
"] 	c #0B1305",
"^ 	c #2C580F",
"/ 	c #5DC519",
"( 	c #71FD14",
"_ 	c #70FF0E",
": 	c #6FFF0E",
"< 	c #73FF15",
"[ 	c #5FCA17",
"} 	c #336412",
"| 	c #091303",
"1 	c #0C0E0C",
"2 	c #090C07",
"3 	c #1C360A",
"4 	c #5AC016",
"5 	c #73FF10",
"6 	c #6EFE0E",
"7 	c #6CF90F",
"8 	c #6CF80F",
"9 	c #6DFC0F",
"0 	c #71FF0E",
"a 	c #63D21A",
"b 	c #1F3C0D",
"c 	c #0A0C09",
"d 	c #070905",
"e 	c #244A09",
"f 	c #6AE817",
"g 	c #6AF110",
"h 	c #68EB11",
"i 	c #6CF610",
"j 	c #6DFD0E",
"k 	c #6FF814",
"l 	c #2D5711",
"m 	c #060606",
"n 	c #0D0D0D",
"o 	c #1D370A",
"p 	c #6EFF0E",
"q 	c #6EFC10",
"r 	c #57BD14",
"s 	c #3F7F15",
"t 	c #64E011",
"u 	c #6DFB0F",
"v 	c #6CF90E",
"w 	c #264A0F",
"x 	c #060308",
"y 	c #5BC116",
"z 	c #70FA15",
"A 	c #3F8313",
"B 	c #0F1D05",
"C 	c #5BCB11",
"D 	c #6FF913",
"E 	c #6EF613",
"F 	c #70FE12",
"G 	c #6FFE0F",
"H 	c #65DE16",
"I 	c #0F1809",
"J 	c #121112",
"K 	c #0E100D",
"L 	c #2C590F",
"M 	c #6CFA0F",
"N 	c #6BEF13",
"O 	c #377111",
"P 	c #1D390B",
"Q 	c #5ABF18",
"R 	c #4FAD11",
"S 	c #3F8511",
"T 	c #3B7C10",
"U 	c #469411",
"V 	c #57BF11",
"W 	c #6DF512",
"X 	c #6DFA0F",
"Y 	c #468C18",
"Z 	c #000003",
"` 	c #030701",
" .	c #5DC618",
"..	c #6DFC0E",
"+.	c #67E613",
"@.	c #306010",
"#.	c #111E09",
"$.	c #264612",
"%.	c #13200B",
"&.	c #1B330B",
"*.	c #1E3C0B",
"=.	c #17250E",
"-.	c #15240C",
";.	c #3C7D11",
">.	c #69EB12",
",.	c #65DE14",
"'.	c #0B0C09",
").	c #141415",
"!.	c #161715",
"~.	c #111C0B",
"{.	c #62DB12",
"].	c #284E0F",
"^.	c #000000",
"/.	c #0E1509",
"(.	c #3A7315",
"_.	c #5DC01B",
":.	c #6BE01D",
"<.	c #5BC715",
"[.	c #35710C",
"}.	c #050505",
"|.	c #397511",
"1.	c #68EE0F",
"2.	c #284912",
"3.	c #0B080D",
"4.	c #111211",
"5.	c #63DC13",
"6.	c #2D5215",
"7.	c #000004",
"8.	c #080907",
"9.	c #1D370C",
"0.	c #214509",
"a.	c #346910",
"b.	c #64E410",
"c.	c #6FFC12",
"d.	c #377110",
"e.	c #5DC815",
"f.	c #6CF70F",
"g.	c #69F10F",
"h.	c #3A7711",
"i.	c #08030B",
"j.	c #0C0F0A",
"k.	c #336114",
"l.	c #6FFF0F",
"m.	c #6AF111",
"n.	c #5AC513",
"o.	c #4A9F11",
"p.	c #449011",
"q.	c #39790E",
"r.	c #2E5E0E",
"s.	c #387012",
"t.	c #62DC10",
"u.	c #6CEC16",
"v.	c #0C1506",
"w.	c #3E7C14",
"x.	c #6BF60F",
"y.	c #6BF310",
"z.	c #479017",
"A.	c #030006",
"B.	c #366218",
"C.	c #71FF11",
"D.	c #6CF412",
"E.	c #68E812",
"F.	c #68EA12",
"G.	c #72FF0F",
"H.	c #253E14",
"I.	c #2D5511",
"J.	c #6BF50F",
"K.	c #6AF310",
"L.	c #469114",
"M.	c #040008",
"N.	c #274A10",
"O.	c #70FF0F",
"P.	c #74FF10",
"Q.	c #1F3612",
"R.	c #2F5C11",
"S.	c #3C7B12",
"T.	c #08040B",
"U.	c #121D0B",
"V.	c #72FF13",
"W.	c #6EFD0E",
"X.	c #66DD17",
"Y.	c #070D04",
"Z.	c #479115",
"`.	c #68ED0F",
" +	c #2C5112",
".+	c #0A070D",
"++	c #5FCC17",
"@+	c #6EFD0F",
"#+	c #6DFB0E",
"$+	c #6EF714",
"%+	c #244A0B",
"&+	c #0C110A",
"*+	c #66E014",
"=+	c #67E612",
"-+	c #0D0D0C",
";+	c #10110F",
">+	c #336612",
",+	c #6FFF10",
"'+	c #51B211",
")+	c #3D7C14",
"!+	c #65D719",
"~+	c #50A717",
"{+	c #1B340A",
"]+	c #4FA615",
"^+	c #499715",
"/+	c #000002",
"(+	c #171817",
"_+	c #62D417",
":+	c #4B9C14",
"<+	c #0B0E09",
"[+	c #030501",
"}+	c #010002",
"|+	c #1B2C0F",
"1+	c #56B517",
"2+	c #69EA13",
"3+	c #0F0E10",
"4+	c #1F3E0A",
"5+	c #6FFA12",
"6+	c #6CF80E",
"7+	c #67E514",
"8+	c #5DBC1D",
"9+	c #56AE1B",
"0+	c #64D31A",
"a+	c #6BF111",
"b+	c #305D13",
"c+	c #030004",
"d+	c #0A0B09",
"e+	c #2E5813",
"f+	c #6FF815",
"g+	c #3E7917",
"h+	c #000001",
"i+	c #284B10",
"j+	c #66DF16",
"k+	c #305C13",
"l+	c #050107",
"m+	c #10190A",
"n+	c #478D18",
"o+	c #65DF14",
"p+	c #69F110",
"q+	c #499716",
"r+	c #111C0A",
"s+	c #030104",
"t+	c #0C0E0A",
"u+	c #284B12",
"v+	c #3A7811",
"w+	c #489118",
"x+	c #479215",
"y+	c #3D7C13",
"z+	c #121213",
"A+	c #191B17",
"B+	c #07010A",
"C+	c #020006",
"D+	c #030007",
"E+	c #07020B",
"F+	c #0A050C",
"G+	c #0C0B0D",
"                  . + @ # $ %                   ",
"              & * = - ; > , ' ) ! ~             ",
"          { ] ^ / ( _ : : _ < [ } | 1           ",
"        2 3 4 5 6 7 8 8 8 8 8 9 0 a b c         ",
"      d e f : g h i 8 8 8 8 8 8 8 j k l m       ",
"    n o f p q r s t u 7 7 8 8 8 8 8 v k w x     ",
"    ] y : 8 z A B C 5 D E F G 7 8 8 8 7 H I J   ",
"  K L 5 8 M N O P Q R S T U V W X 8 8 8 8 Y Z   ",
"  `  ...8 X +.@.#.$.%.&.*.=.-.;.>.8 8 8 8 ,.'.).",
"!.~.( 8 8 u {.].^./.(._.:.<.[.}.|.i 8 8 8 1.2.3.",
"4.$._ 8 8 u 5.6.7.8.9.0.a.b.c.d.8.e.f.8 8 g.h.i.",
"j.k.l.8 8 7 m.n.o.p.q.r.s.t.p u.v.w.x.8 8 y.z.A.",
"# B.l.8 8 8 7 6 C.( D.E.F.x.8 G.H.I.J.8 8 K.L.M.",
"4.N.O.8 8 8 8 8 8 8 7 X X 8 8 P.Q.R.J.8 8 g S.T.",
"!.U.V.8 8 8 8 8 8 8 8 8 8 8 W.X.Y.Z.x.8 8 `. +.+",
"  ) ++9 8 8 8 8 8 @+l.W.#+: $+%+&+*+8 8 8 =+-+;+",
"  c >+0 8 8 8 8 ,+'+)+Q !+~+{+A.]+i 8 8 x.^+/+  ",
"  (+| _+..8 8 8 C.:+<+^.[+}+|+1+y.8 8 8 2+= 3+  ",
"    K 4+5+7 8 8 8 6+7+8+9+0+a+f.8 8 8 7 b+c+    ",
"      d+e+f+7 8 8 8 8 8 7 8 8 8 8 8 7 g+h+      ",
"        }.i+j+8 8 8 8 8 8 8 8 8 x.2+k+h+        ",
"          l+m+n+o+1.p+y.y.g `.=+q+r+s+          ",
"            3+/+t+u+v+w+x+y+ +-+/+z+            ",
"                A+3.B+C+D+E+F+G+                "};
