/* XPM */
static char * undo3_xpm[] = {
"24 24 159 2",
"  	c #6CF80F",
". 	c #6DFC0F",
"+ 	c #65E311",
"@ 	c #69EE10",
"# 	c #6CF90F",
"$ 	c #6EFE0E",
"% 	c #5ECD12",
"& 	c #35551C",
"* 	c #5CCA11",
"= 	c #6EFC0F",
"- 	c #6EFE0F",
"; 	c #54B215",
"> 	c #2F411E",
", 	c #221A22",
"' 	c #5ED011",
") 	c #4D9C16",
"! 	c #29301F",
"~ 	c #241F21",
"{ 	c #231D20",
"] 	c #61D810",
"^ 	c #71FF0E",
"/ 	c #6EFD0F",
"( 	c #6BF40F",
"_ 	c #458318",
": 	c #242020",
"< 	c #242021",
"[ 	c #334E1C",
"} 	c #3F711A",
"| 	c #54B315",
"1 	c #6AF20F",
"2 	c #6DFA0F",
"3 	c #6AF010",
"4 	c #3C6B1A",
"5 	c #201621",
"6 	c #231F20",
"7 	c #231D21",
"8 	c #211821",
"9 	c #2E3F1D",
"0 	c #55B513",
"a 	c #6AF30F",
"b 	c #6DFB0F",
"c 	c #5FD012",
"d 	c #2C3B1F",
"e 	c #231E21",
"f 	c #221B20",
"g 	c #221921",
"h 	c #468818",
"i 	c #6BF30F",
"j 	c #62D912",
"k 	c #39611C",
"l 	c #231C21",
"m 	c #221D20",
"n 	c #334C1D",
"o 	c #2E401E",
"p 	c #4A8F17",
"q 	c #6EFF0E",
"r 	c #66E511",
"s 	c #427C19",
"t 	c #242120",
"u 	c #231E20",
"v 	c #58BD12",
"w 	c #60D412",
"x 	c #488A18",
"y 	c #272B20",
"z 	c #5BC413",
"A 	c #499018",
"B 	c #6AF10F",
"C 	c #4C9917",
"D 	c #262521",
"E 	c #221C20",
"F 	c #5ED111",
"G 	c #478A18",
"H 	c #3E6F1A",
"I 	c #56B714",
"J 	c #292E20",
"K 	c #30471D",
"L 	c #65E111",
"M 	c #55B415",
"N 	c #26271F",
"O 	c #5ECF11",
"P 	c #6BF70F",
"Q 	c #30461D",
"R 	c #324A1D",
"S 	c #63DD11",
"T 	c #6FFF0E",
"U 	c #4B9617",
"V 	c #262620",
"W 	c #2A331F",
"X 	c #63DC10",
"Y 	c #70FF0E",
"Z 	c #478C18",
"` 	c #2D3A1F",
" .	c #5BC613",
"..	c #499017",
"+.	c #25241F",
"@.	c #282B20",
"#.	c #61D612",
"$.	c #53AE15",
"%.	c #231F21",
"&.	c #29311F",
"*.	c #57B914",
"=.	c #4A9417",
"-.	c #252520",
";.	c #272A20",
">.	c #5AC313",
",.	c #2C371F",
"'.	c #5AC213",
").	c #54B014",
"!.	c #282D20",
"~.	c #242220",
"{.	c #448019",
"].	c #344F1D",
"^.	c #30451E",
"/.	c #61D811",
"(.	c #65E410",
"_.	c #2E3D1E",
":.	c #2C381F",
"<.	c #5AC113",
"[.	c #4E9E16",
"}.	c #272820",
"|.	c #3C681B",
"1.	c #6DF90F",
"2.	c #468518",
"3.	c #59C013",
"4.	c #6BF60F",
"5.	c #6AF310",
"6.	c #4D9B16",
"7.	c #31491D",
"8.	c #221D21",
"9.	c #34511C",
"0.	c #417719",
"a.	c #3E6E1A",
"b.	c #221A21",
"c.	c #242221",
"d.	c #3F7219",
"e.	c #64DF11",
"f.	c #344E1C",
"g.	c #221B21",
"h.	c #211822",
"i.	c #221C21",
"j.	c #242121",
"k.	c #3D6B1B",
"l.	c #427919",
"m.	c #211622",
"n.	c #221922",
"o.	c #2E3F1E",
"p.	c #6AF110",
"q.	c #5CC813",
"r.	c #4C9717",
"s.	c #3C661B",
"t.	c #334D1C",
"u.	c #35541C",
"v.	c #40741A",
"w.	c #51A715",
"x.	c #60D512",
"y.	c #6BF50F",
"z.	c #69EF10",
"A.	c #68EC10",
"B.	c #68ED10",
"                                                ",
"                    . + @ #                     ",
"                # $ % & * =                     ",
"              # - ; > , ' .                     ",
"            #   ) ! ~ { ] ^ / #                 ",
"            ( _ : < < < [ } | 1 2               ",
"        # 3 4 5 < < < 6 { 7 8 9 0 a #           ",
"        b c d e ~ < 6 6 7 7 6 f g h i #         ",
"          . j k l m 6 < n o m e < g p -         ",
"      # q # 2 r s t e u v w x y ~ < ! z -       ",
"    2 + A B 2 # 1 C D E F - # G D 6 < H .       ",
"    - I J K L b   / M N O . # P Q < e R S 2     ",
"    T U V m W S b   q c X 2   Y Z < ~ `  ..     ",
"    T ..+.6 @.#..     . 2     q $.< %.&.*./     ",
"    T =.-.< ;.>.-             Y =.6 e ,.'..     ",
"    q ).!.< ~.{.Y           # 2 ].< e ^./.b     ",
"    b (._.6 6 :.<.T         Y [.}.< < |.1.#     ",
"      Y 2.t < 7 9 3.4.    5.6.!.~ < !.I -       ",
"      # 5.7.e < 7 8.9.0.a.o b.~ ~ c.d.T         ",
"        . e.f.g.7 ~ g.h.8 i.< l j.k.B 2         ",
"          . e.l.! m.n.g.b.h.h.o.=.3 b           ",
"            2 p.q.r.s.t.u.v.w.x.  #             ",
"                # y.z.A.B.p.4.#                 ",
"                                                "};
