/* XPM */
static char * undo_transparent_xpm[] = {
"24 24 7 1",
" 	c None",
".	c #030303",
"+	c #010101",
"@	c #000000",
"#	c #020202",
"$	c #040404",
"%	c #050505",
"                        ",
"         .+@#+++        ",
"       ++@+@@+@+##      ",
"     #@@@@@@@@@@@++#    ",
"$   $#@@###+ ++#@@@#.   ",
"@+#+#@@##       +.@@+.  ",
"+@@+@@+           #+@#  ",
"+@@@@@%            #@+# ",
"+@@@@@@#           #@@# ",
"+@@@@@@+.           +@+#",
"+@@@@+$             #@@#",
"+@@#@               .@@#",
"+++                  +@+",
"#.                  %@@+",
"                    .+@#",
"                    #@@+",
"                   .#@+ ",
"                   +@@. ",
"                  .@@+  ",
"                 #@@#.  ",
"              ##@@@@$   ",
"             ++@@++.    ",
"             @@+@$      ",
"             ++#        "};
