/* XPM */
static char * undo_xpm[] = {
"24 24 11 1",
" 	c None",
".	c #696060",
"+	c #686161",
"@	c #676161",
"#	c #686262",
"$	c #6A6060",
"%	c #696262",
"&	c #686060",
"*	c #696161",
"=	c #676060",
"-	c #676262",
"                        ",
"                        ",
"                        ",
"              .+++@     ",
"           ++++++++     ",
"          #+++++++      ",
"          $++++++@      ",
"           +++#+++#     ",
"            +++.+++     ",
"    %#      #++ @+++    ",
"    +++      +#  +++    ",
"    ++&          *++    ",
"    ++@          #++    ",
"    ++=          #++    ",
"    +++          +++    ",
"    *++          +++    ",
"    @+++        +++*    ",
"     *++&      ++++     ",
"      +++++*++++++      ",
"       #+++++++++       ",
"         +++++-         ",
"                        ",
"                        ",
"                        "};
