/* XPM */
static char * white_main_menu_xpm[] = {
"25 24 18 1",
" 	c None",
".	c #E2E2E2",
"+	c #DEDEDE",
"@	c #CFCFCF",
"#	c #D7D7D7",
"$	c #FFFFFF",
"%	c #CBCBCB",
"&	c #E9E9E9",
"*	c #F1F1F1",
"=	c #F4F4F4",
"-	c #EDEDED",
";	c #DADADA",
">	c #C4C4C4",
",	c #D3D3D3",
"'	c #C8C8C8",
")	c #E5E5E5",
"!	c #D1D1D1",
"~	c #F8F8F8",
"                         ",
"  .+++@  @++.+   #.+++   ",
" +$$$$#  %$$$$&  @$$$$*  ",
" +$$$$#  %$$$$&  %$$$$=  ",
" +$$$$#  %$$$$&  %$$$$=  ",
" +$$$$#  %$$$$&  %$$$$=  ",
" +----;  #----#  .---&;  ",
"                         ",
"                         ",
"  ####;  >####+  ,#####  ",
" -$$$$'  +$$$$)  #$$$$#  ",
" &$$$$>  +$$$$.  #$$$$#  ",
" &$$$$>  +$$$$)  #$$$$#  ",
" &!$$$'  +$$$$.  ,$$$$#  ",
"  #,,,+  %#,,,+  ##,,,;  ",
"                         ",
"                         ",
"  ===*&  #~==*.  #~==*+  ",
" &$$$$,  +$$$$.  #$$$$#  ",
" -$$$$#  +$$$$)  ,$$$$#  ",
" &$$$$,  +$$$$)  #$$$$#  ",
" &$$$$,  +$$$$.  ,$$$$#  ",
"  &&--&   &-&-#  @----%  ",
"                         "};
